<?xml version="1.0" encoding="UTF-8"?>
<!-- Created with Inkscape (http://www.inkscape.org/) -->
<svg width="640" height="640" version="1.1" viewBox="0 0 169.33 169.33" xml:space="preserve" xmlns="http://www.w3.org/2000/svg" xmlns:xlink="http://www.w3.org/1999/xlink"><defs><linearGradient id="linearGradient5" x1="84.667" x2="84.667" y2="169.33" gradientUnits="userSpaceOnUse"><stop stop-color="#5bcefa" offset="0"/><stop stop-color="#f5a9b8" offset=".25"/><stop stop-color="#f4f4f5" offset=".5"/><stop stop-color="#f5a9b8" offset=".75"/><stop stop-color="#5bcefa" offset="1"/></linearGradient><radialGradient id="radialGradient21" cx="-84.667" cy="84.667" r="76.2" gradientTransform="matrix(.94444 0 0 .94444 -4.7037 4.7037)" gradientUnits="userSpaceOnUse"><stop stop-color="#1f1f23" offset=".84"/><stop stop-color="#1a1a1e" offset="1"/></radialGradient><filter id="filter2-0" x="-.10801" y="-.14249" width="1.216" height="1.285" color-interpolation-filters="sRGB"><feGaussianBlur stdDeviation="4.3128581"/></filter></defs><path d="m84.667 0a84.667 84.667 0 0 0-84.667 84.667 84.667 84.667 0 0 0 84.667 84.667 84.667 84.667 0 0 0 84.667-84.667 84.667 84.667 0 0 0-84.667-84.667z" fill="url(#linearGradient5)"/><circle transform="scale(-1,1)" cx="-84.667" cy="84.667" r="71.967" fill="url(#radialGradient21)" stroke-width="0"/><g transform="matrix(1.1338 0 0 1.1338 -11.329 -11.156)"><path class="cls-1" d="m98.157 47.055c-0.93649 1.6626-1.7774 3.3827-2.5418 5.1409-7.2623-1.0893-14.658-1.0893-21.94 0-0.74536-1.7582-1.6054-3.4782-2.5418-5.1409-6.8227 1.1658-13.473 3.2107-19.78 6.0964-12.499 18.519-15.881 36.56-14.2 54.352 7.3196 5.4084 15.518 9.5365 24.252 12.174 1.9684-2.6374 3.7076-5.4466 5.1983-8.3706-2.8285-1.0511-5.5614-2.3698-8.1796-3.8987 0.68798-0.49683 1.3569-1.0129 2.0067-1.5097 15.346 7.224 33.12 7.224 48.485 0 0.64977 0.53501 1.3187 1.0511 2.0067 1.5097-2.6182 1.5479-5.3512 2.8476-8.1988 3.9179 1.4908 2.9239 3.2299 5.7333 5.1984 8.3707 8.7336-2.6374 16.932-6.7463 24.252-12.155 1.9869-20.64-3.4021-38.528-14.239-54.371-6.2871-2.8857-12.938-4.9307-19.761-6.0773zm-29.412 49.498c-4.7204 0-8.6382-4.2809-8.6382-9.5747 0-5.2937 3.7649-9.5938 8.6192-9.5938 4.8543 0 8.7147 4.3191 8.6382 9.5938-0.07629 5.2747-3.8031 9.5747-8.6192 9.5747zm31.839 0c-4.7396 0-8.6191-4.2809-8.6191-9.5747 0-5.2937 3.7649-9.5938 8.6191-9.5938 4.8543 0 8.6956 4.3191 8.6191 9.5938-0.0762 5.2747-3.8031 9.5747-8.6191 9.5747z" filter="url(#filter2-0)" opacity=".32" stroke-width=".75668" style="mix-blend-mode:normal"/><path class="cls-1" d="m98.157 47.055c-0.93649 1.6626-1.7774 3.3827-2.5418 5.1409-7.2623-1.0893-14.658-1.0893-21.94 0-0.74536-1.7582-1.6054-3.4782-2.5418-5.1409-6.8227 1.1658-13.473 3.2107-19.78 6.0964-12.499 18.519-15.881 36.56-14.2 54.352 7.3196 5.4084 15.518 9.5365 24.252 12.174 1.9684-2.6374 3.7076-5.4466 5.1983-8.3706-2.8285-1.0511-5.5614-2.3698-8.1796-3.8987 0.68798-0.49683 1.3569-1.0129 2.0067-1.5097 15.346 7.224 33.12 7.224 48.485 0 0.64977 0.53501 1.3187 1.0511 2.0067 1.5097-2.6182 1.5479-5.3512 2.8476-8.1988 3.9179 1.4908 2.9239 3.2299 5.7333 5.1984 8.3707 8.7336-2.6374 16.932-6.7463 24.252-12.155 1.9869-20.64-3.4021-38.528-14.239-54.371-6.2871-2.8857-12.938-4.9307-19.761-6.0773zm-29.412 49.498c-4.7204 0-8.6382-4.2809-8.6382-9.5747 0-5.2937 3.7649-9.5938 8.6192-9.5938 4.8543 0 8.7147 4.3191 8.6382 9.5938-0.07629 5.2747-3.8031 9.5747-8.6192 9.5747zm31.839 0c-4.7396 0-8.6191-4.2809-8.6191-9.5747 0-5.2937 3.7649-9.5938 8.6191-9.5938 4.8543 0 8.6956 4.3191 8.6191 9.5938-0.0762 5.2747-3.8031 9.5747-8.6191 9.5747z" fill="#5bcefa" stroke-width=".75668"/><path d="m48.079 58.341c-9.0193 15.354-11.976 30.391-11.212 45.244h95.6c0.86474-16.804-3.2448-31.751-11.234-45.244zm20.647 19.044c4.8543 0 8.7146 4.319 8.6382 9.5937-0.0763 5.2747-3.803 9.5746-8.6191 9.5746-4.7204 0-8.6382-4.2808-8.6382-9.5746 0-5.2937 3.7648-9.5937 8.6191-9.5937zm31.858 0c4.8543 0 8.6956 4.319 8.6191 9.5937-0.0762 5.2747-3.8031 9.5746-8.6191 9.5746-4.7396 0-8.6191-4.2808-8.6191-9.5746 0-5.2937 3.7649-9.5937 8.6191-9.5937z" fill="#f5a9b8" stroke-width=".20388"/><path d="m41.058 73.422c-1.7602 5.0558-2.9318 10.081-3.6018 15.081h22.765c-0.07241-0.49654-0.11007-1.0059-0.11007-1.525 0-5.2937 3.7648-9.5937 8.6191-9.5937 4.8543 0 8.7146 4.319 8.6382 9.5937-0.0075 0.51882-0.05039 1.0282-0.12609 1.525h14.836c-0.07176-0.49654-0.10904-1.0059-0.10904-1.525 0-5.2937 3.7649-9.5937 8.6191-9.5937 4.8543 0 8.6955 4.319 8.6191 9.5937-7e-3 0.51882-0.0504 1.0282-0.12608 1.525h22.797c-0.70087-5.2134-1.9133-10.236-3.5972-15.081z" fill="#f4f4f5" stroke-width=".20388"/></g></svg>
