<?xml version="1.0" encoding="UTF-8"?>
<!-- Created with Inkscape (http://www.inkscape.org/) -->
<svg width="3439.2" height="640" version="1.1" viewBox="0 0 909.95 169.33" xml:space="preserve" xmlns="http://www.w3.org/2000/svg" xmlns:xlink="http://www.w3.org/1999/xlink"><defs><linearGradient id="linearGradient5" x1="84.667" x2="84.667" y2="169.33" gradientUnits="userSpaceOnUse"><stop stop-color="#5bcefa" offset="0"/><stop stop-color="#f5a9b8" offset=".25"/><stop stop-color="#f4f4f5" offset=".5"/><stop stop-color="#f5a9b8" offset=".75"/><stop stop-color="#5bcefa" offset="1"/></linearGradient><radialGradient id="radialGradient21" cx="-84.667" cy="84.667" r="76.2" gradientTransform="matrix(.94444 0 0 .94444 -4.7037 4.7037)" gradientUnits="userSpaceOnUse"><stop stop-color="#1f1f23" offset=".84"/><stop stop-color="#1a1a1e" offset="1"/></radialGradient><filter id="filter2-0" x="-.10801" y="-.14249" width="1.216" height="1.285" color-interpolation-filters="sRGB"><feGaussianBlur stdDeviation="4.3128581"/></filter></defs><path d="m84.667 0a84.667 84.667 0 0 0-84.667 84.667 84.667 84.667 0 0 0 84.667 84.667 84.667 84.667 0 0 0 84.667-84.667 84.667 84.667 0 0 0-84.667-84.667z" fill="url(#linearGradient5)"/><circle transform="scale(-1,1)" cx="-84.667" cy="84.667" r="71.967" fill="url(#radialGradient21)" stroke-width="0"/><g transform="matrix(1.1338 0 0 1.1338 -11.329 -11.156)"><path class="cls-1" d="m98.157 47.055c-0.93649 1.6626-1.7774 3.3827-2.5418 5.1409-7.2623-1.0893-14.658-1.0893-21.94 0-0.74536-1.7582-1.6054-3.4782-2.5418-5.1409-6.8227 1.1658-13.473 3.2107-19.78 6.0964-12.499 18.519-15.881 36.56-14.2 54.352 7.3196 5.4084 15.518 9.5365 24.252 12.174 1.9684-2.6374 3.7076-5.4466 5.1983-8.3706-2.8285-1.0511-5.5614-2.3698-8.1796-3.8987 0.68798-0.49683 1.3569-1.0129 2.0067-1.5097 15.346 7.224 33.12 7.224 48.485 0 0.64977 0.53501 1.3187 1.0511 2.0067 1.5097-2.6182 1.5479-5.3512 2.8476-8.1988 3.9179 1.4908 2.9239 3.2299 5.7333 5.1984 8.3707 8.7336-2.6374 16.932-6.7463 24.252-12.155 1.9869-20.64-3.4021-38.528-14.239-54.371-6.2871-2.8857-12.938-4.9307-19.761-6.0773zm-29.412 49.498c-4.7204 0-8.6382-4.2809-8.6382-9.5747 0-5.2937 3.7649-9.5938 8.6192-9.5938 4.8543 0 8.7147 4.3191 8.6382 9.5938-0.07629 5.2747-3.8031 9.5747-8.6192 9.5747zm31.839 0c-4.7396 0-8.6191-4.2809-8.6191-9.5747 0-5.2937 3.7649-9.5938 8.6191-9.5938 4.8543 0 8.6956 4.3191 8.6191 9.5938-0.0762 5.2747-3.8031 9.5747-8.6191 9.5747z" filter="url(#filter2-0)" opacity=".32" stroke-width=".75668" style="mix-blend-mode:normal"/><path class="cls-1" d="m98.157 47.055c-0.93649 1.6626-1.7774 3.3827-2.5418 5.1409-7.2623-1.0893-14.658-1.0893-21.94 0-0.74536-1.7582-1.6054-3.4782-2.5418-5.1409-6.8227 1.1658-13.473 3.2107-19.78 6.0964-12.499 18.519-15.881 36.56-14.2 54.352 7.3196 5.4084 15.518 9.5365 24.252 12.174 1.9684-2.6374 3.7076-5.4466 5.1983-8.3706-2.8285-1.0511-5.5614-2.3698-8.1796-3.8987 0.68798-0.49683 1.3569-1.0129 2.0067-1.5097 15.346 7.224 33.12 7.224 48.485 0 0.64977 0.53501 1.3187 1.0511 2.0067 1.5097-2.6182 1.5479-5.3512 2.8476-8.1988 3.9179 1.4908 2.9239 3.2299 5.7333 5.1984 8.3707 8.7336-2.6374 16.932-6.7463 24.252-12.155 1.9869-20.64-3.4021-38.528-14.239-54.371-6.2871-2.8857-12.938-4.9307-19.761-6.0773zm-29.412 49.498c-4.7204 0-8.6382-4.2809-8.6382-9.5747 0-5.2937 3.7649-9.5938 8.6192-9.5938 4.8543 0 8.7147 4.3191 8.6382 9.5938-0.07629 5.2747-3.8031 9.5747-8.6192 9.5747zm31.839 0c-4.7396 0-8.6191-4.2809-8.6191-9.5747 0-5.2937 3.7649-9.5938 8.6191-9.5938 4.8543 0 8.6956 4.3191 8.6191 9.5938-0.0762 5.2747-3.8031 9.5747-8.6191 9.5747z" fill="#5bcefa" stroke-width=".75668"/><path d="m48.079 58.341c-9.0193 15.354-11.976 30.391-11.212 45.244h95.6c0.86474-16.804-3.2448-31.751-11.234-45.244zm20.647 19.044c4.8543 0 8.7146 4.319 8.6382 9.5937-0.0763 5.2747-3.803 9.5746-8.6191 9.5746-4.7204 0-8.6382-4.2808-8.6382-9.5746 0-5.2937 3.7648-9.5937 8.6191-9.5937zm31.858 0c4.8543 0 8.6956 4.319 8.6191 9.5937-0.0762 5.2747-3.8031 9.5746-8.6191 9.5746-4.7396 0-8.6191-4.2808-8.6191-9.5746 0-5.2937 3.7649-9.5937 8.6191-9.5937z" fill="#f5a9b8" stroke-width=".20388"/><path d="m41.058 73.422c-1.7602 5.0558-2.9318 10.081-3.6018 15.081h22.765c-0.07241-0.49654-0.11007-1.0059-0.11007-1.525 0-5.2937 3.7648-9.5937 8.6191-9.5937 4.8543 0 8.7146 4.319 8.6382 9.5937-0.0075 0.51882-0.05039 1.0282-0.12609 1.525h14.836c-0.07176-0.49654-0.10904-1.0059-0.10904-1.525 0-5.2937 3.7649-9.5937 8.6191-9.5937 4.8543 0 8.6955 4.319 8.6191 9.5937-7e-3 0.51882-0.0504 1.0282-0.12608 1.525h22.797c-0.70087-5.2134-1.9133-10.236-3.5972-15.081z" fill="#f4f4f5" stroke-width=".20388"/></g><path d="m241.34 134.65q-5.6996 0-8.6706-7.8218-2.9711-7.8218-2.9711-22.556 0-14.916 1.2127-31.348 1.2127-17.099 4.0625-30.62-12.248 6.3059-17.705 17.766-3.3955 7.2154-3.3955 17.099 0 3.0923 0.97014 5.6389t2.9711 4.0625q2.0009 1.4552 2.0009 2.6679 0 0.60634-0.3638 1.0914-1.2733 1.6371-4.6688 1.6371-4.7901 0-8.1856-4.4869-3.3955-4.4869-3.3955-12.309 0-8.9738 3.7593-17.099 4.0018-8.61 11.035-14.977 13.097-11.945 32.56-16.25 9.0344-2.0009 17.463-2.0009 2.6072 0 4.0018 2.1222 1.4552 2.1222 1.4552 4.6688 0 2.7285-2.6072 2.7285-16.007 0-28.801 4.5475 6.0027 2.3041 6.0027 7.458 0 2.1222-0.7276 6.0634-2.486 12.976-4.7901 39.594-0.84888 9.277-0.84888 20.919 0 11.581 2.4254 11.581 1.6978 0 9.2163-23.708 4.972-15.644 7.1548-23.162 0.97014-3.3955 2.7285-3.3955 0.78824 0 1.3339 0.72761 0.60634 0.66697 0.60634 1.819 0 0.5457-0.1819 1.2127-4.7901 17.826-6.0634 23.041-3.3349 13.279-7.2761 22.738-4.3656 10.55-10.308 10.55zm36.38-8.1249q-4.2444 0-6.5484-2.7892-3.8199-4.4263-3.8199-14.188 0-6.6091 1.6978-14.613 2.5466-11.945 6.6091-19.342-5.6389 3.6987-11.581 3.6987-7.3973 0-7.3973-10.065 0-6.124 1.3339-11.581 0.60634-2.7285 4.2444-2.7285 3.7593 0 6.0634 1.8796 2.3041 1.8796 2.3041 4.0625 0 2.8498-2.9104 11.399 5.6996 0 10.975-4.5475 0.97014-0.84887 2.9104-0.84887 2.1828 0 4.6082 0.84887 3.9412 1.4552 3.9412 3.6987 0 0.66697-0.42444 1.4552-3.0317 5.8815-5.3964 13.339-4.9113 15.583-4.9113 26.073 0 5.1539 2.0009 5.1539 2.3647 0 5.0326-3.5168 4.9113-6.4272 10.186-19.585 4.1231-10.186 6.0028-16.371 1.0308-3.3955 2.7285-3.3955 0.78824 0 1.3339 0.72761 0.60634 0.66697 0.60634 1.819 0 0.5457-0.1819 1.2127-6.4878 23.768-14.37 36.016-7.8824 12.187-15.037 12.187zm34.622-19.039q2.0615 0 8.0037-13.946 3.7593-8.7313 6.0634-15.34-0.30317-1.3339-1.4552-3.0923-1.6371-2.486-4.0625-2.486-2.7285 0-4.9113 3.3955-2.1222 3.3955-3.3955 9.0951-2.1222 9.1557-2.1222 17.341 0 5.0326 1.8796 5.0326zm24.193 19.039q-5.0326 0-7.7005-4.4869-3.6987-6.2453-3.6987-21.707-5.639 16.977-13.036 16.977-0.97014 0-1.9403-0.30317-4.4263-1.2127-6.7304-5.0932-4.0018-6.6091-4.0018-16.068 0-5.7602 1.3946-11.824 4.1231-18.311 16.129-18.311 2.1222 0 4.4263 0.66697 3.4561 0.97014 5.9421 3.2136l0.78824-6.2453q0.30317-2.1222 2.2434-2.5466 0.90951-0.1819 1.9403-0.1819 3.2742 0 5.7602 1.6371 2.5466 1.5765 2.5466 3.2742 0 0.5457-0.42443 3.153-0.36381 2.6073-0.72761 5.5177-2.5466 20.009-2.5466 31.954 0 3.638 0.3638 7.5186 0.36381 3.8199 2.1222 3.8199 1.2733 0 4.305-7.8824 5.8208-15.401 10.49-31.651 0.97014-3.3955 2.7285-3.3955 0.78824 0 1.3339 0.72761 0.60634 0.66697 0.60634 1.819 0 0.5457-0.1819 1.2127-5.8208 21.646-7.7005 27.77-3.153 10.126-6.4878 15.28-3.2742 5.1539-7.943 5.1539zm53.661 0q-9.9439 0-9.9439-16.068 0-7.6399 1.8796-19.463 1.152-7.0335 1.152-10.914 0-4.2444-1.8796-4.2444-2.6073 0-8.7919 18.069-4.5475 13.339-6.0028 21.707l-0.84887 5.0326q-0.5457 3.0923-2.486 3.0923-1.0308 0-2.1828-0.3638-4.0625-1.2733-4.9113-5.2751-1.152-5.2145-1.6977-14.916-0.54571-9.762-0.54571-19.221 0-12.248 0.78824-18.251 0.42444-3.4561 3.0923-3.4561 3.153 0 6.3666 2.486 3.2136 2.486 3.2136 6.4878 0 1.819-0.5457 6.0027-1.3946 10.065-1.4552 15.522l-0.0606 4.1231q3.8199-17.22 9.5195-25.83 3.2742-4.9113 7.3973-4.9113 2.7285 0 5.5783 2.2434 5.457 4.305 5.457 16.977 0 6.6091-1.3946 16.674-0.97014 7.0942-0.97014 10.732 0 4.7294 1.5765 4.7294 1.819 0 4.7901-7.8824 5.8815-15.401 10.55-31.651 0.97014-3.3955 2.7285-3.3955 0.78824 0 1.3339 0.72761 0.60634 0.66697 0.60634 1.819 0 0.5457-0.1819 1.2127-5.8208 21.646-7.7005 27.77-3.153 10.126-6.4878 15.28-3.2742 5.1539-7.943 5.1539zm30.863 4.1231q-6.1846 0-10.247-4.2444-3.5774-3.7593-4.0018-9.5801-3.638-0.97014-3.638-7.3973 0-7.458 3.8806-7.458 2.3647 0 4.7901 1.3946 2.6072 1.5765 2.6072 4.8507 3.638-0.24253 7.7611-2.3647-6.5484-9.762-8.1856-12.43-6.4878-10.793-6.4878-18.978 0-5.6389 2.7285-9.7014 2.7892-4.1231 6.1846-5.457 3.4561-1.3946 6.1846-1.3946 8.7919 0 12.309 6.791 2.3041 4.3656 2.3041 7.943 0 3.0317-1.0914 4.972-1.0308 1.8796-2.7892 2.6679-1.6978 0.78824-3.6987 0.78824-1.819 0-1.819-1.3946 0-0.66697 0.66697-1.6371 1.2733-1.819 1.2733-3.2742v-1.6977q0-2.6073-0.84887-4.8507-1.2127-3.0923-3.638-3.0923-2.6679 0-4.6082 2.7892-2.3041 3.2742-2.3041 6.8516 0 3.4561 2.2434 7.3367 2.3041 3.8199 5.457 8.0643 3.6987 4.9113 5.8815 8.4281 11.702-10.975 15.219-20.615 1.2733-3.3955 3.0317-3.3955 0.78824 0 1.2127 0.66697 0.48507 0.66697 0.48507 1.5158 0 1.152-2.1222 5.6389-5.2145 11.399-15.158 21.464 2.1828 5.0932 2.1828 10.005 0 4.4869-2.0616 8.3068t-5.6389 6.124q-3.5774 2.3647-8.0643 2.3647zm0-6.4272q1.3339 0 2.486-0.78824 1.152-0.7276 1.819-2.7892 0.66697-2.0616 0.66697-5.8815 0-1.4552-0.72761-3.3349-5.2751 3.153-10.429 3.638 0.48507 2.3041 1.152 4.4263 1.4552 4.7294 5.0326 4.7294zm56.268-32.257q2.971 0 5.3358-2.9711 2.3647-3.0317 3.5774-7.0335 0.78824-2.7892 0.78824-5.2751 0-6.1846-3.7593-6.1846-2.8498 0-5.5783 5.8815-2.6679 5.8208-3.8806 14.067 1.9403 1.5158 3.5168 1.5158zm3.6987 28.559q-2.0009 0-4.1231-0.60634-7.458-2.1828-11.035-8.9738-3.7593-7.1548-3.7593-16.492 0-8.0643 2.6679-15.704 2.6072-7.7005 7.6399-12.127 3.7593-3.2742 8.4281-3.2742 1.7584 0 4.1231 0.60634 4.6082 1.2733 7.0335 5.0326 2.486 3.7593 2.486 8.61 0 4.4263-1.819 8.7313-1.819 4.305-5.2751 7.2154-3.3955 2.9104-8.4887 2.9104-3.0923 0-5.5783-1.0914 0.0606 15.704 7.0942 17.887 0.84887 0.24253 1.6977 0.24253 14.795-0.3638 24.193-35.531 0.9095-3.3955 2.7285-3.3955 0.78824 0 1.3339 0.72761 0.60634 0.66697 0.60634 1.6977 0 0.60634-0.1819 1.3339-1.819 7.3973-3.5168 12.976-3.6987 12.43-9.0951 19.827-6.8516 9.3982-17.159 9.3982zm61.301 6.0028q-9.944 0-9.944-16.068 0-7.6399 1.8796-19.463 1.152-7.0335 1.152-10.914 0-4.2444-1.8796-4.2444-2.6073 0-8.7919 18.069-4.5475 13.339-6.0028 21.707l-0.84887 5.0326q-0.54571 3.0923-2.486 3.0923-1.0308 0-2.1828-0.3638-4.0625-1.2733-4.9113-5.2751-1.152-5.2145-1.6978-14.916-0.5457-9.762-0.5457-19.221 0-12.248 0.78824-18.251 0.42443-3.4561 3.0923-3.4561 3.153 0 6.3666 2.486 3.2136 2.486 3.2136 6.4878 0 1.819-0.5457 6.0027-1.3946 10.065-1.4552 15.522l-0.0606 4.1231q3.8199-17.22 9.5195-25.83 3.2742-4.9113 7.3973-4.9113 2.7285 0 5.5783 2.2434 5.457 4.305 5.457 16.977 0 6.6091-1.3946 16.674-0.97014 7.0942-0.97014 10.732 0 4.7294 1.5765 4.7294 1.819 0 4.7901-7.8824 5.8815-15.401 10.55-31.651 0.97014-3.3955 2.7285-3.3955 0.78824 0 1.3339 0.72761 0.60634 0.66697 0.60634 1.819 0 0.5457-0.1819 1.2127-5.8208 21.646-7.7005 27.77-3.153 10.126-6.4878 15.28-3.2742 5.1539-7.943 5.1539zm61.119 6.6091q-5.0326 0-9.3376-2.6072-4.305-2.5466-5.9421-6.3666-2.4254-5.8208-2.4254-10.732 0-2.7892 0.60634-5.6996 1.7584-8.0037 7.0335-13.461-7.3973-1.6371-11.157-6.6697-1.2127-1.6977-2.0616-3.2742-2.486-4.7294-2.486-12.005 0-5.3964 1.5158-11.096 2.0009-7.3973 6.124-13.885 3.8199-6.0634 9.0951-10.005 6.0028-4.5475 13.036-4.5475 11.884 0 17.341 8.4887 1.334 2.1828 2.0616 4.0625 1.2127 3.0923 1.2127 7.5792 0 6.9729-3.638 11.46-2.3041 2.8498-5.7602 3.5774-0.78824 0.1819-1.4552 0.1819-1.7584 0-2.6679-0.90951-0.42444-0.5457-0.42444-1.2733 0-1.0914 1.0308-2.6679 1.6978-2.486 2.486-5.7602 0.84888-3.3349 0.84888-6.1846 0-5.0932-2.2434-8.2462-1.8796-2.6073-5.6389-2.6073-3.638 0-7.3973 3.4561-5.8815 5.3358-9.7014 15.401-3.0317 8.1249-3.0317 15.098 0 7.6399 3.8806 11.399 2.6679 2.6073 7.7005 2.6073 1.2733 0 2.9104-0.60634t2.5466-1.2733q1.4552-0.97014 2.0616-0.97014 0.90951 0 1.6371 1.0308 0.78824 0.97014 0.78824 2.0615-0.0606 3.8806-4.9113 6.8516-6.4272 3.9412-8.7919 11.581-1.5158 4.7901-1.5158 8.3068 0 6.124 3.2136 8.7919 2.3647 1.8796 4.972 1.8796 4.7294 0 10.368-5.5177 4.5475-4.4263 8.61-10.49 5.8815-8.7313 10.308-19.039 3.3955-7.943 4.9113-13.097 1.0308-3.3955 2.8498-3.3955 0.78824 0 1.3339 0.72761 0.60634 0.66697 0.60634 1.819 0 1.5765-3.153 11.157-4.3656 13.461-10.126 23.829-7.0335 12.915-17.22 18.433-4.7294 2.6072-10.005 2.6072zm48.931-2.486q-6.1846 0-10.247-4.2444-3.5774-3.7593-4.0018-9.5801-3.638-0.97014-3.638-7.3973 0-7.458 3.8806-7.458 2.3647 0 4.7901 1.3946 2.6072 1.5765 2.6072 4.8507 3.638-0.24253 7.7611-2.3647-6.5484-9.762-8.1856-12.43-6.4878-10.793-6.4878-18.978 0-5.6389 2.7285-9.7014 2.7892-4.1231 6.1846-5.457 3.4561-1.3946 6.1846-1.3946 8.7919 0 12.309 6.791 2.3041 4.3656 2.3041 7.943 0 3.0317-1.0914 4.972-1.0308 1.8796-2.7892 2.6679-1.6977 0.78824-3.6987 0.78824-1.819 0-1.819-1.3946 0-0.66697 0.66697-1.6371 1.2733-1.819 1.2733-3.2742v-1.6977q0-2.6073-0.84887-4.8507-1.2127-3.0923-3.638-3.0923-2.6679 0-4.6082 2.7892-2.3041 3.2742-2.3041 6.8516 0 3.4561 2.2434 7.3367 2.3041 3.8199 5.457 8.0643 3.6987 4.9113 5.8815 8.4281 11.702-10.975 15.219-20.615 1.2733-3.3955 3.0317-3.3955 0.78824 0 1.2127 0.66697 0.48507 0.66697 0.48507 1.5158 0 1.152-2.1222 5.6389-5.2145 11.399-15.158 21.464 2.1828 5.0932 2.1828 10.005 0 4.4869-2.0616 8.3068t-5.6389 6.124q-3.5774 2.3647-8.0643 2.3647zm0-6.4272q1.334 0 2.486-0.78824 1.152-0.7276 1.819-2.7892t0.66697-5.8815q0-1.4552-0.7276-3.3349-5.2751 3.153-10.429 3.638 0.48507 2.3041 1.152 4.4263 1.4552 4.7294 5.0326 4.7294zm44.141-13.461q2.7892 0 4.9113-3.3955t3.4561-9.1557q2.1222-9.3982 2.1222-17.281 0-5.0326-1.9403-5.0326-1.9403 0-7.6399 13.158-5.8815 13.521-5.8815 16.674 0 1.0914 0.97014 2.5466 1.6371 2.486 4.0018 2.486zm-11.157 41.655q-8.0643 0-8.3675-11.096-0.30317-11.339-0.30317-23.526 0-36.805 4.1231-55.662 0.84887-3.6987 3.8806-3.6987 3.3955 0 6.3666 2.1222t2.9711 5.5783q0 0.5457-0.60634 4.0018-1.819 9.8833-2.7892 18.069l1.3946-4.305q5.8815-17.826 13.339-17.826 0.97015 0 1.9403 0.30317 7.7611 2.1828 9.9439 13.582 0.7276 4.0625 0.7276 7.2154 0 8.7313-2.2434 15.765 8.2462-9.4589 13.946-24.981 1.2127-3.3955 2.9104-3.3955 0.7276 0 1.2127 0.72761 0.54571 0.66697 0.54571 1.6977 0 0.66697-1.152 4.5475-5.0326 17.099-12.854 26.133-8.5494 9.8833-19.827 10.005-2.1222 0-4.4263-0.66697-4.7294-1.3339-7.5792-5.0326-0.7276 11.399-0.7276 22.192l0.1819 13.521q0 3.153-0.97014 4.1231-0.60634 0.60633-1.6371 0.60633zm54.025-44.93q2.0616 0 8.0037-13.946 3.7593-8.7313 6.0634-15.34-0.30317-1.3339-1.4552-3.0923-1.6371-2.486-4.0625-2.486-2.7285 0-4.9113 3.3955-2.1222 3.3955-3.3955 9.0951-2.1222 9.1557-2.1222 17.341 0 5.0326 1.8796 5.0326zm24.193 19.039q-5.0326 0-7.7005-4.4869-3.6987-6.2453-3.6987-21.707-5.6389 16.977-13.036 16.977-0.97014 0-1.9403-0.30317-4.4263-1.2127-6.7304-5.0932-4.0018-6.6091-4.0018-16.068 0-5.7602 1.3946-11.824 4.1231-18.311 16.129-18.311 2.1222 0 4.4263 0.66697 3.4561 0.97014 5.9421 3.2136l0.78824-6.2453q0.30317-2.1222 2.2434-2.5466 0.90951-0.1819 1.9403-0.1819 3.2742 0 5.7602 1.6371 2.5466 1.5765 2.5466 3.2742 0 0.5457-0.42443 3.153-0.3638 2.6073-0.72761 5.5177-2.5466 20.009-2.5466 31.954 0 3.638 0.36381 7.5186 0.3638 3.8199 2.1222 3.8199 1.2733 0 4.305-7.8824 5.8208-15.401 10.49-31.651 0.97014-3.3955 2.7285-3.3955 0.78824 0 1.334 0.72761 0.60634 0.66697 0.60634 1.819 0 0.5457-0.18191 1.2127-5.8208 21.646-7.7005 27.77-3.153 10.126-6.4878 15.28-3.2742 5.1539-7.943 5.1539zm53.661 0q-9.9439 0-9.9439-16.068 0-7.6399 1.8796-19.463 1.152-7.0335 1.152-10.914 0-4.2444-1.8796-4.2444-2.6072 0-8.7919 18.069-4.5475 13.339-6.0027 21.707l-0.84888 5.0326q-0.5457 3.0923-2.486 3.0923-1.0308 0-2.1828-0.3638-4.0625-1.2733-4.9113-5.2751-1.152-5.2145-1.6977-14.916-0.54571-9.762-0.54571-19.221 0-12.248 0.78824-18.251 0.42444-3.4561 3.0923-3.4561 3.153 0 6.3665 2.486 3.2136 2.486 3.2136 6.4878 0 1.819-0.5457 6.0027-1.3946 10.065-1.4552 15.522l-0.0606 4.1231q3.8199-17.22 9.5195-25.83 3.2742-4.9113 7.3973-4.9113 2.7285 0 5.5783 2.2434 5.457 4.305 5.457 16.977 0 6.6091-1.3946 16.674-0.97014 7.0942-0.97014 10.732 0 4.7294 1.5765 4.7294 1.819 0 4.7901-7.8824 5.8815-15.401 10.55-31.651 0.97014-3.3955 2.7285-3.3955 0.78824 0 1.334 0.72761 0.60633 0.66697 0.60633 1.819 0 0.5457-0.1819 1.2127-5.8208 21.646-7.7005 27.77-3.153 10.126-6.4878 15.28-3.2742 5.1539-7.943 5.1539zm-8.4887-70.456q-2.6072 0-6.124-3.3349-3.5168-3.3349-4.9113-3.3349-0.84887 0-3.153 2.7892-2.2434 2.7285-3.5168 2.7285-1.7584 0-2.971-2.2434-0.42444-0.84887-0.42444-1.5765 0-2.486 3.4561-6.0634 3.5168-3.5774 5.9421-3.5774 2.9104 0 7.0335 3.6987 4.1231 3.6987 6.2453 3.6987 2.0616 0 4.0018-3.0923 2.0009-3.153 2.6679-3.153 0.84888 0 1.2733 0.97014 0.48507 0.90951 0.48507 1.5158 0 1.7584-1.6371 4.4869-3.8806 6.4878-8.3675 6.4878zm39.109 68.274q-7.7611 0-11.884-4.4869-5.5783-6.124-5.5783-18.554 0-12.005 4.6688-24.072 4.7901-12.491 9.7014-12.491 3.5168 0 5.8815 3.9412 1.6371-1.2733 3.6987-1.2733 2.6679 0 4.4263 2.6073 1.819 2.6073 2.9104 6.791 1.152 4.1231 1.6978 8.9132 2.0009 0.97014 4.0018 0.97014 1.9403 0 4.7901-1.3946t4.7294-7.3367q1.0308-3.3955 2.8498-3.3955 0.78824 0 1.334 0.72761 0.60633 0.66697 0.60633 1.819 0 0.5457-0.1819 1.2127-4.0018 13.885-15.219 13.885-1.152 0-2.3041-0.1819 0.24253 4.4869 0.24253 8.0643 0 6.0634-1.6977 11.581-1.6978 5.457-5.2145 9.0951-3.4561 3.5774-9.4589 3.5774zm-1.3339-8.3675q4.2444 0 6.791-4.1837 3.9412-6.4272 3.9412-17.584 0-2.2434-0.1819-4.4869-6.0028-4.1837-8.2462-10.853-4.1231 8.3068-6.2453 18.311-1.2127 5.5783-1.2127 10.065 0 8.7313 5.1539 8.7313zm41.11 10.55q-5.6389 0-8.61-7.0942-2.9711-7.1548-2.9711-18.918 0-13.825 1.152-30.863 2.1222-31.772 7.5792-31.772 3.2742 0 6.3059 2.1828 3.0923 2.1222 3.0923 5.2145 0 1.9403-0.5457 4.0625-0.5457 2.1222-1.7584 10.368-3.8806 27.77-3.8806 48.446 0 9.3376 2.4254 9.3376 1.2733 0 4.2444-7.8824 3.0317-7.8824 6.0634-17.159 3.0317-9.277 4.4869-14.491 0.97014-3.3955 2.7892-3.3955 0.78824 0 1.3339 0.72761 0.60634 0.66697 0.60634 1.6977 0 0.66697-0.84887 4.0018-3.9412 14.977-7.0942 25.102-3.153 10.126-6.4878 15.28-3.2742 5.1539-7.8824 5.1539z" fill="#1f1f23" stroke-linecap="round" stroke-opacity=".26274" stroke-width=".70227" aria-label="Trans en Español"/></svg>
