<?xml version="1.0" encoding="UTF-8"?>
<!-- Created with Inkscape (http://www.inkscape.org/) -->
<svg width="640" height="640" version="1.1" viewBox="0 0 169.33 169.33" xml:space="preserve" xmlns="http://www.w3.org/2000/svg" xmlns:xlink="http://www.w3.org/1999/xlink"><defs><linearGradient id="linearGradient5" x1="84.667" x2="84.667" y2="169.33" gradientUnits="userSpaceOnUse"><stop stop-color="#5bcefa" offset="0"/><stop stop-color="#f5a9b8" offset=".25"/><stop stop-color="#f4f4f5" offset=".5"/><stop stop-color="#f5a9b8" offset=".75"/><stop stop-color="#5bcefa" offset="1"/></linearGradient><filter id="filter2" x="-.10801" y="-.14249" width="1.216" height="1.285" color-interpolation-filters="sRGB"><feGaussianBlur stdDeviation="4.3128581"/></filter><radialGradient id="radialGradient11" cx="-161.85" cy="-12.594" r="43.905" gradientTransform="matrix(1.9284 -2.256e-8 1.6065e-8 1.5427 150.26 5.6707)" gradientUnits="userSpaceOnUse"><stop stop-color="#f5a9b8" offset=".65"/><stop stop-color="#f4f4f5" offset=".82"/><stop stop-color="#5bcefa" offset="1"/></radialGradient><filter id="filter15" x="-.15583" y="-.10143" width="1.3117" height="1.2029" color-interpolation-filters="sRGB"><feGaussianBlur stdDeviation="5.7015582"/></filter><radialGradient id="radialGradient21" cx="-84.667" cy="84.667" r="76.2" gradientUnits="userSpaceOnUse"><stop stop-color="#1f1f23" offset=".84"/><stop stop-color="#1a1a1e" offset="1"/></radialGradient></defs><rect width="169.33" height="169.33" fill="url(#linearGradient5)"/><circle transform="scale(-1 1)" cx="-84.667" cy="84.667" r="76.2" fill="url(#radialGradient21)" stroke-width="0"/><g><g><path class="cls-1" d="m98.157 47.055c-0.93649 1.6626-1.7774 3.3827-2.5418 5.1409-7.2623-1.0893-14.658-1.0893-21.94 0-0.74536-1.7582-1.6054-3.4782-2.5418-5.1409-6.8227 1.1658-13.473 3.2107-19.78 6.0964-12.499 18.519-15.881 36.56-14.2 54.352 7.3196 5.4084 15.518 9.5365 24.252 12.174 1.9684-2.6374 3.7076-5.4466 5.1983-8.3706-2.8285-1.0511-5.5614-2.3698-8.1796-3.8987 0.68798-0.49683 1.3569-1.0129 2.0067-1.5097 15.346 7.224 33.12 7.224 48.485 0 0.64977 0.53501 1.3187 1.0511 2.0067 1.5097-2.6182 1.5479-5.3512 2.8476-8.1988 3.9179 1.4908 2.9239 3.2299 5.7333 5.1984 8.3707 8.7336-2.6374 16.932-6.7463 24.252-12.155 1.9869-20.64-3.4021-38.528-14.239-54.371-6.2871-2.8857-12.938-4.9307-19.761-6.0773zm-29.412 49.498c-4.7204 0-8.6382-4.2809-8.6382-9.5747 0-5.2937 3.7649-9.5938 8.6192-9.5938 4.8543 0 8.7147 4.3191 8.6382 9.5938-0.07629 5.2747-3.8031 9.5747-8.6192 9.5747zm31.839 0c-4.7396 0-8.6191-4.2809-8.6191-9.5747 0-5.2937 3.7649-9.5938 8.6191-9.5938 4.8543 0 8.6956 4.3191 8.6191 9.5938-0.0762 5.2747-3.8031 9.5747-8.6191 9.5747z" filter="url(#filter2)" opacity=".32" stroke-width=".75668" style="mix-blend-mode:normal"/><path id="Discord-Symbol-White" class="cls-1" d="m98.157 47.055c-0.93649 1.6626-1.7774 3.3827-2.5418 5.1409-7.2623-1.0893-14.658-1.0893-21.94 0-0.74536-1.7582-1.6054-3.4782-2.5418-5.1409-6.8227 1.1658-13.473 3.2107-19.78 6.0964-12.499 18.519-15.881 36.56-14.2 54.352 7.3196 5.4084 15.518 9.5365 24.252 12.174 1.9684-2.6374 3.7076-5.4466 5.1983-8.3706-2.8285-1.0511-5.5614-2.3698-8.1796-3.8987 0.68798-0.49683 1.3569-1.0129 2.0067-1.5097 15.346 7.224 33.12 7.224 48.485 0 0.64977 0.53501 1.3187 1.0511 2.0067 1.5097-2.6182 1.5479-5.3512 2.8476-8.1988 3.9179 1.4908 2.9239 3.2299 5.7333 5.1984 8.3707 8.7336-2.6374 16.932-6.7463 24.252-12.155 1.9869-20.64-3.4021-38.528-14.239-54.371-6.2871-2.8857-12.938-4.9307-19.761-6.0773zm-29.412 49.498c-4.7204 0-8.6382-4.2809-8.6382-9.5747 0-5.2937 3.7649-9.5938 8.6192-9.5938 4.8543 0 8.7147 4.3191 8.6382 9.5938-0.07629 5.2747-3.8031 9.5747-8.6192 9.5747zm31.839 0c-4.7396 0-8.6191-4.2809-8.6191-9.5747 0-5.2937 3.7649-9.5938 8.6191-9.5938 4.8543 0 8.6956 4.3191 8.6191 9.5938-0.0762 5.2747-3.8031 9.5747-8.6191 9.5747z" fill="#5bcefa" stroke-width=".75668"/><path d="m48.079 58.341c-9.0193 15.354-11.976 30.391-11.212 45.244h95.6c0.86474-16.804-3.2448-31.751-11.234-45.244zm20.647 19.044c4.8543 0 8.7146 4.319 8.6382 9.5937-0.0763 5.2747-3.803 9.5746-8.6191 9.5746-4.7204 0-8.6382-4.2808-8.6382-9.5746 0-5.2937 3.7648-9.5937 8.6191-9.5937zm31.858 0c4.8543 0 8.6956 4.319 8.6191 9.5937-0.0762 5.2747-3.8031 9.5746-8.6191 9.5746-4.7396 0-8.6191-4.2808-8.6191-9.5746 0-5.2937 3.7649-9.5937 8.6191-9.5937z" fill="#f5a9b8" stroke-width=".20388"/><path d="m41.058 73.422c-1.7602 5.0558-2.9318 10.081-3.6018 15.081h22.765c-0.07241-0.49654-0.11007-1.0059-0.11007-1.525 0-5.2937 3.7648-9.5937 8.6191-9.5937 4.8543 0 8.7146 4.319 8.6382 9.5937-0.0075 0.51882-0.05039 1.0282-0.12609 1.525h14.836c-0.07176-0.49654-0.10904-1.0059-0.10904-1.525 0-5.2937 3.7649-9.5937 8.6191-9.5937 4.8543 0 8.6955 4.319 8.6191 9.5937-7e-3 0.51882-0.0504 1.0282-0.12608 1.525h22.797c-0.70087-5.2134-1.9133-10.236-3.5972-15.081z" fill="#f4f4f5" stroke-width=".20388"/><path transform="translate(246.52 98.425)" d="m-188.22-78.583c-0.11853-2e-3 -0.25886 0.01749-0.4222 0.05943-1.4015 0.35982-2.9405 0.91016-4.5909 1.7234-3.5829 1.7648-6.8491 4.3933-9.3658 7.6967-1.3345 1.745-2.2959 3.5499-2.8019 5.2539-0.47594 1.6108-0.45144 2.9309 6e-3 3.9336 0.39734 0.87157 1.0497 1.2409 1.8578 1.2304 0.80591-0.01048 1.587-0.31942 2.3446-0.90124 0.53988-0.41466 0.86738-0.77087 0.98909-1.095 0.0339-0.09447 0.0361-0.17418 6e-3 -0.23978-0.0594-0.13052-0.28507-0.16108-0.68058-0.07751-0.39895 0.07711-0.74405 0.04461-1.0299-0.10904-0.28569-0.15358-0.50524-0.39885-0.64802-0.74466-0.45859-1.1107-0.4737-2.3529-0.0429-3.7 0.69335-2.1406 2.2945-4.3967 4.548-6.3676-0.71813 2.1402-0.86019 4.2037-0.47956 6.3469 0.34662 2.0001 1.0512 3.8628 1.6645 5.5583 0.59047 1.6324 1.2223 3.0653 1.758 3.8582 0.58073 0.85938 1.2046 1.2338 2.0464 0.93948 0.86552-0.30258 1.5972-1.3884 2.0226-3.2551 0.38846-1.688 0.58645-3.4906 0.67902-5.5128 0.0163-0.41952 0.11667-2.7009 0.38654-4.7749 0.89556-0.40059 1.7148-0.95974 2.5079-1.6929-0.51701 1.137-0.79406 2.4991-0.85059 4.2416-0.0362 1.1551 0.0517 2.2337 0.22996 3.1941 0.26444 1.4248 0.71127 2.4755 1.3653 3.0489 0.39955 0.36811 0.91028 0.48342 1.5451 0.32504 1.0863-0.27101 2.0648-1.6157 3.0019-3.9445 0.4559-1.1395 0.81386-2.3266 1.1431-3.6039 0.25202 0.92389 0.65834 1.7518 1.2036 2.4572 0.43156 0.56882 0.99272 0.90901 1.6908 0.9989 0.15368 0.02623 0.30404 0.02653 0.45165 5.17e-4 1.1522-0.20304 1.9103-1.898 2.5239-4.7155 0.24754 2.3854 0.76072 4.3351 1.4536 5.4219 0.5056 0.79018 1.1448 1.1604 1.9218 1.0754 0.72308-0.0791 1.2668-0.64743 1.665-1.6728 0.40988-1.0321 0.74907-2.4595 1.0945-4.2003 0.086-0.44215 0.26422-1.4435 0.53692-2.6841 0.0603 0.60548 0.13514 1.2375 0.22376 1.896 0.2113 1.5662 0.47711 2.8936 0.75809 3.8401 0.2104 0.72751 0.64993 1.2068 1.3095 1.4128 0.18718 0.05896 0.36068 0.08407 0.5209 0.07493 0.30233-0.01725 0.45788-0.32715 0.47749-0.91622 0.0129-0.47763 0.0298-0.94564 0.0501-1.4046 0.025-0.51176 0.0761-1.0652 0.1571-1.6505 0.16033-1.1569 0.43752-2.4507 0.85576-3.7951 0.83882-2.6842 1.6593-3.7689 2.036-3.7775 0.30262-0.0069 0.44708 0.25153 0.44493 0.80202-2e-3 0.51545-0.093 1.2305-0.24908 2.2681-0.25179 1.7334-0.29367 3.3507-0.18397 4.6772 0.23536 2.8459 1.2623 4.4428 2.7936 4.4499 8e-3 3.7e-5 0.0162 8.8e-5 0.0243 0 0.71711-0.0069 1.2449-0.50457 1.6361-1.4537 0.31653-0.7499 0.59533-1.7372 0.89038-2.9301 0.11034 0.962 0.45181 1.5609 0.98134 1.7492 0.16773 1.06 0.58894 1.9856 1.2382 2.7404 0.73999 0.85637 1.5922 1.3188 2.5368 1.3896 0.68568 0.05135 1.2565-0.12739 1.7291-0.52555 0.47428-0.38646 0.81399-0.91344 1.0413-1.5766 0.22681-0.66178 0.31006-1.3873 0.25477-2.1709-0.0605-0.85674-0.26148-1.7321-0.61082-2.6122 1.4735-1.4263 2.7411-2.8791 3.699-4.3093 0.39237-0.56744 0.60082-0.90341 0.61805-1.0609 0.0124-0.11302-0.015-0.21997-0.0822-0.32143-0.0575-0.09964-0.14883-0.16048-0.27389-0.18242-0.27788-0.04875-0.54504 0.12965-0.79013 0.5488-0.68822 1.2064-1.9864 2.4689-3.7956 3.9693-0.33202-0.59364-0.7833-1.3112-1.3369-2.0929-0.47362-0.67761-0.88129-1.2902-1.2206-1.8417-0.32995-0.55997-0.4826-1.0514-0.45631-1.4872 0.0272-0.4506 0.23872-0.85181 0.63614-1.2061 0.33335-0.30067 0.71932-0.42831 1.1472-0.39171 0.38972 0.03334 0.67047 0.23491 0.83457 0.61908 0.11464 0.27949 0.15804 0.58147 0.13229 0.90796-8e-3 0.10628-0.0165 0.21322-0.0248 0.32143-0.0142 0.18565-0.13149 0.38586-0.34985 0.60358-0.1145 0.11629-0.17415 0.21935-0.17983 0.30851-0.0119 0.18696 0.1264 0.29694 0.41341 0.3297 0.31621 0.0361 0.61087 0.01776 0.88676-0.05529 0.28538-0.07183 0.51865-0.22259 0.70229-0.44958 0.19351-0.23327 0.30816-0.54565 0.34261-0.92708 0.0406-0.44913-0.0973-0.95786-0.42426-1.5007-0.49372-0.83621-1.4781-1.2807-2.8949-1.3798-0.43994-0.03076-0.94753 0.0086-1.5141 0.12196-0.55531 0.10736-1.0782 0.36765-1.5539 0.80202-0.46758 0.42998-0.71919 0.98057-0.7519 1.681-0.01 0.21465 3e-3 0.44188 0.0398 0.68264-0.84748 2.1171-1.6275 4.3786-2.3606 7.0569-0.36513 1.3566-0.63913 2.0836-0.92965 2.0789-0.24272-0.0039-0.41447-0.44291-0.4868-1.2842-0.055-0.63943-0.0535-1.5816 0.0403-2.727 0.13834-1.6545 0.23637-2.8129 0.23823-3.7579 3e-3 -1.3008-0.20584-2.1697-0.66818-2.7363-0.16234-0.19862-0.35555-0.35948-0.57981-0.48472-0.44881-0.25012-0.89797-0.3646-1.3374-0.35398-0.66134 0.01597-1.28 0.30388-1.8133 0.89555-0.6372 0.71167-1.203 1.7176-1.6376 3.1197-0.20089 0.64944-0.37526 1.3895-0.51625 2.2345-0.0136-0.31682-0.0252-0.62719-0.0351-0.93173-0.0291-0.80018 0.0413-1.9254 0.25373-3.1998 0.0834-0.53259 0.12948-0.88315 0.13126-1.0992 4e-3 -0.46728-0.2471-0.81016-0.76068-1.0413-0.51104-0.22998-1.0262-0.31793-1.5343-0.2744-0.43065 0.0369-0.68783 0.23973-0.76068 0.62115-0.10341 0.50924-0.16612 1.2501-0.15865 2.3074-0.68348 2.1072-1.3127 4.4516-1.9492 7.1391-0.34076 1.4051-0.57844 2.1675-0.78083 2.19-0.27055 0.03011-0.47242-0.3005-0.59945-0.96738-0.12758-0.67454-0.2201-1.3087-0.27853-1.9063-0.18763-1.9191-0.21841-4.4562 0.10025-6.8823 0.046-0.35809 0.0966-0.68702 0.15089-0.99012 0.0643-0.30567 0.0982-0.47839 0.0982-0.54002-1.5e-4 -0.18564-0.20418-0.33494-0.6134-0.44597-0.39813-0.11837-0.86391-0.13844-1.3922-0.05994-0.16659 0.02475-0.32353 0.0581-0.47078 0.09974-0.31399 0.09258-0.49768 0.25529-0.5457 0.49093-0.0624 0.34616-0.11866 0.70346-0.1695 1.0723-0.40716-0.19024-0.89164-0.28763-1.4506-0.29352-0.37282-0.0062-0.73096 0.02523-1.0728 0.0925-1.4322 0.28183-2.5186 1.0915-3.1264 2.5104-0.0559 0.10001-0.10341 0.22106-0.14315 0.36122-0.0975 0.28192-0.18311 0.5787-0.24546 0.90434-0.20226 0.72984-0.46061 1.6345-0.76171 2.7502-0.56091 2.106-1.0659 3.7795-1.6784 5.0509-0.32331 0.67635-0.6599 1.0655-1.0154 1.1617-0.30072 0.08132-0.50564-0.30272-0.62994-1.11-0.24596-1.5976-0.23976-3.6799 0.18862-5.903 0.21091-1.0837 0.5202-2.031 0.92863-2.8758 0.0575-0.11379 0.0822-0.20954 0.0739-0.28784-0.028-0.26329-0.36509-0.38517-1.0196-0.35398-0.40193 0.02453-0.78164 0.09589-1.1364 0.21291-0.31535 0.10403-0.5476 0.23394-0.69453 0.38602-0.80509 0.82451-1.6352 1.4178-2.5662 1.7911 0.30892-1.2038 0.49981-1.922 0.47646-2.2567-0.0174-0.24875-0.21827-0.40919-0.60823-0.47904-0.38843-0.06958-0.89773 0.01421-1.5265 0.26717-0.6087 0.24487-0.96512 0.55856-1.0475 0.92036-0.18573 0.73516-0.21265 1.4577-0.0879 2.1756 0.14577 0.83843 0.57353 1.2332 1.2222 1.2206-0.19302 1.2893-0.33515 2.4017-0.5917 4.9945-0.35524 3.6144-0.77146 5.7012-1.0196 5.8022-0.35444 0.14426-0.62963-0.63948-1.001-2.1673-0.40027-1.6468-0.71058-2.7242-0.95343-4.0225-0.68852-3.5534-0.75353-5.6463-0.31006-7.6497 0.11593-0.54277 0.19548-0.93924 0.21342-1.2072 0.043-0.64213-0.39338-0.90248-1.3849-0.73484 2.3421-1.6357 4.8764-2.8021 7.5628-3.5889 0.43851-0.12843 0.69443-0.34177 0.79788-0.65112 0.0966-0.28896 0.0774-0.52379-0.062-0.71003-0.0805-0.11749-0.2169-0.1802-0.41444-0.18345zm49.405 4.0582c-0.45056-0.01778-0.88406 0.05619-1.296 0.22066-0.88337 0.35774-1.6126 0.99676-2.1575 1.9534-0.5555 0.94992-0.8864 2.0394-0.97204 3.2742-0.0994 1.433 0.1614 2.8421 0.74569 4.1832 0.55512 1.2713 1.4254 2.2544 2.5301 2.9388 0.31417 0.19223 0.61466 0.33215 0.90124 0.42013 1.4888 0.45706 2.5917 0.09094 3.622-1.0108 0.67977-0.7263 1.4178-1.7992 2.1988-3.0954-0.0959 0.65568-0.17138 1.328-0.21859 2.0143-0.10616 1.5508-0.0144 2.7821 0.16226 3.6912 0.13002 0.69253 0.50645 1.267 1.08 1.7343 0.16312 0.13327 0.31554 0.23472 0.45734 0.30437 0.26891 0.13209 0.4159-0.02399 0.47852-0.46302 0.0484-0.35975 0.11063-0.71754 0.18552-1.0744 0.25868-1.1995 0.88287-2.6023 2.0882-4.2292 1.6201-2.1794 2.8352-3.0756 3.2628-2.8293 0.30935 0.17819 0.36416 0.58228 0.15968 1.2123-0.19311 0.59504-0.54212 1.3115-1.049 2.2681-0.83758 1.6031-1.2852 2.932-1.4578 4.0897-0.35648 2.3906 0.52204 3.9301 1.8536 4.8426h5.2e-4c0.62654 0.42935 1.1252 0.46249 1.6175 0.11317 0.49119-0.33674 1.1304-1.0259 2.0516-2.051 0.56061-0.63166 1.9539-2.0845 4.4028-4.6297 0.0759-0.07812 0.13236-0.15908 0.16846-0.2434 0.0762-0.17803 0.0826-0.36009 0.0196-0.54467-0.0484-0.1858-0.14201-0.33092-0.27957-0.4346-0.30751-0.23177-0.64888-0.14247-1.0294 0.25218-1.8271 1.8871-3.7187 3.534-5.1025 5.0679-0.69544 0.78131-1.0593 1.0995-1.3188 0.91157-0.21323-0.15445-0.30286-0.5727-0.18706-1.248 0.0896-0.52242 0.31451-1.2472 0.75809-2.1828 0.67344-1.4123 1.1788-2.4008 1.571-3.4758 0.70003-1.9189 0.6893-3.4563-0.061-4.6622-0.38373-0.61573-0.81612-1.0463-1.2764-1.2981-0.69631-0.38088-1.4132-0.34912-2.1477 0.077-1.2298 0.7205-2.6664 2.2662-3.7574 4.5393 0.0687-0.31 0.14107-0.6185 0.21652-0.92604 0.20363-0.84417 0.59168-1.8882 1.2201-3.2654 0.25154-0.566 0.40703-0.96632 0.4749-1.2289 0.14742-0.57025-6e-3 -1.1519-0.4625-1.7322-0.45441-0.57801-0.95334-0.96621-1.4723-1.1751-0.44097-0.17753-0.73684-0.04372-0.90227 0.39429-0.20658 0.52937-0.49592 1.463-0.7922 2.6464-1.242 2.0452-2.5048 3.8694-3.392 4.7997-1.0014 1.05-1.9292 1.4576-2.9993 1.142-0.12285-0.03967-0.24657-0.09918-0.37052-0.17828-1.0134-0.67475-1.6181-2.3444-1.4139-4.7832 0.36145 0.27605 0.77375 0.48529 1.2392 0.63097 0.76754 0.24024 1.4231 0.23102 1.9952-0.03101 0.57996-0.25819 1.0652-0.65147 1.4573-1.1803 0.39197-0.52866 0.65867-1.1033 0.78342-1.727 0.13674-0.68372 0.0595-1.3429-0.2465-1.9797-0.29536-0.63161-0.8102-1.1361-1.5296-1.5146-0.36953-0.18796-0.69843-0.31916-0.98186-0.39636-0.28183-0.07676-0.55803-0.12059-0.82837-0.13126zm-37.562 0.5948c0.27042 6e-3 0.51037 0.10303 0.71882 0.29404 0.19631 0.18092 0.32428 0.3526 0.38344 0.51108-0.31375 0.89463-0.70353 1.9794-1.1596 3.3492-0.7281 2.2145-1.1495 3.4794-1.4888 3.5445-0.28712 0.05506-0.48112-0.32585-0.57671-1.1054-0.15426-1.258-0.14539-2.5436 0.0605-3.8235 0.12093-0.79695 0.34-1.4205 0.64648-1.9038 0.3149-0.48336 0.70117-0.76031 1.1358-0.84181 0.0969-0.01816 0.18995-0.02629 0.28009-0.02429zm38.49 1.0516c0.0892-0.0024 0.1763 0.0093 0.26097 0.03462 0.60287 0.18007 0.82618 0.68359 0.67024 1.5389-0.063 0.34536-0.19236 0.69584-0.38396 1.0542-0.28742 0.50954-0.64471 0.93202-1.0697 1.2645-0.42442 0.32402-0.8528 0.42053-1.3059 0.28319-0.24003-0.07276-0.49459-0.26644-0.76585-0.57826 0.32305-1.1749 0.78321-2.09 1.3286-2.7626 0.45242-0.55161 0.87926-0.82409 1.2656-0.83457zm-17.361 0.21291c0.22437 0.5085 0.5158 1.0625 0.87488 1.6676 0.2553 0.42184 0.88593 1.4034 1.9585 3.1321-0.61998 0.29179-1.2012 0.44224-1.7606 0.4408-0.0319-0.55648-0.24836-0.97298-0.6625-1.2599-0.38392-0.25451-0.76052-0.39072-1.1276-0.41134-0.10996-0.0062-0.20941 0.0086-0.29817 0.04444 0.21395-0.90341 0.5346-2.1616 1.0154-3.6137zm3.6189 6.2963c0.1322 0.33755 0.20954 0.63642 0.23048 0.894 0.0551 0.67776 0.0607 1.207 2e-3 1.5766-0.0591 0.36924-0.16421 0.61547-0.32246 0.73587-0.15659 0.13159-0.33566 0.18962-0.53899 0.1726-0.54377-0.04553-0.99131-0.52231-1.3084-1.4123-0.14382-0.39774-0.27114-0.80608-0.38137-1.2232 0.78542-0.02775 1.548-0.28192 2.3192-0.74362zm21.077 92.589c-0.20061-0.0084-0.40821 0.02565-0.6258 0.10749-0.70309 0.26443-1.7388 3.5391-0.98806 8.2827 0.10093 0.64127 0.22505 1.282 0.36174 1.9069-0.0756 0.85217-0.29348 1.4597-0.65836 1.8361-0.38822 0.40048-0.73617 0.66834-1.0361 0.8077-0.30965 0.14387-0.63661 0.22061-0.9772 0.22686-0.24334-0.5957-0.51948-1.1519-0.81597-1.6614-0.2898-0.52276-0.59967-0.93899-0.93173-1.232-0.32441-0.29752-0.67309-0.38802-1.064-0.25425-0.30158 0.1032-0.55843 0.29308-0.77256 0.57309-0.42965-0.51297-0.88064-0.72173-1.3937-0.57878-0.71621 0.19955-1.3316 1.468-1.8014 3.5894-0.20756 0.9252-0.33811 1.79-0.39481 2.6019-0.28717 1.635-0.62863 3.1017-1.1069 4.5925-0.34264 1.0858-0.69232 1.6566-0.97772 1.7198-0.25266 0.0559-0.40197-0.20788-0.46509-0.78962-0.0486-0.44797-0.0487-1.1278-0.0176-2.065 0.0464-1.316-0.0104-2.5133-0.1266-3.4535-0.22561-1.8258-0.75223-3.205-1.5808-3.8272-0.0395-0.02958-0.0787-0.05756-0.11782-0.08423-0.39439-0.26994-0.7653-0.38751-1.1276-0.3359-0.60139 0.08568-1.1208 0.61485-1.5658 1.5482-0.77921 1.6462-1.3284 3.8048-1.7224 6.2094-5e-3 -0.07959-0.0498-0.76997-0.0548-0.84956-0.0498-0.74452-0.0289-1.9061 0.0889-3.5584 0.0448-0.69796 0.0644-1.2285 0.0532-1.5508-0.0245-0.70916-0.27046-1.293-0.74052-1.7306-0.47203-0.43947-0.92537-0.65512-1.3834-0.61857-0.38471 0.0307-0.61195 0.40217-0.67127 1.0816-0.0861 0.91981-0.12129 2.1059-0.0915 3.4732-0.58514 2.6836-1.2051 4.7616-2.0169 6.7495-0.42533 1.0224-0.76041 1.5306-0.95343 1.5431-0.27265 0.01753-0.43956-0.20963-0.50643-0.6811-0.0672-0.48001-0.10855-0.95012-0.12351-1.4159-0.0468-1.4582 0.0495-3.6959 0.37414-7.0859 0.0482-0.51314 0.0986-1.0172 0.15193-1.5121 0.0622-0.49588 0.0953-0.80844 0.0961-0.91571 2e-3 -0.33399-0.17824-0.65285-0.54054-0.95911-0.35442-0.32018-0.76341-0.47468-1.2366-0.45424-0.14864 0.0064-0.28861 0.0317-0.42064 0.07545-0.28174 0.10107-0.45025 0.37753-0.5023 0.81132 0.048-0.44738-0.24544 2.2798-0.1974 1.8324-0.35755-0.40577-0.78126-0.70167-1.2785-0.87643-0.33138-0.12044-0.64875-0.17769-0.95601-0.17053-0.63515 0.0148-1.1944 0.26555-1.6903 0.73329-0.68837 0.65148-1.2446 1.7176-1.6588 3.0293-0.85563 2.2706-1.905 3.7745-3.1171 4.8193 0.37317-0.87306 0.57288-1.9046 0.61701-3.1771 0.016-0.46045-0.0192-1.0046-0.10231-1.6531-0.24787-1.7762-0.87589-3.0542-1.927-3.5419-0.0366-0.01697-0.074-0.03298-0.11162-0.04806-0.13901-0.06143-0.27934-0.09444-0.42116-0.09974-1.1014-0.04115-2.1384 1.6449-3.2329 4.162-0.12808 0.29928-0.2565 0.59051-0.38499 0.87385 0.23261-1.1102 0.54474-2.4162 0.92087-4.0938 0.12713-0.58698 0.19226-0.95193 0.19792-1.0511 0.0359-0.62892-0.15522-1.1771-0.57154-1.6139-0.41842-0.43893-0.87346-0.67426-1.3767-0.70538-0.44878-0.02775-0.75242 0.31919-0.92242 0.99529-0.31346 1.2933-0.61344 2.6226-0.88522 3.9925-0.68181 1.3143-1.977 2.4522-3.9336 3.2835-0.0953-0.16396-0.2009-0.34014-0.31781-0.52968-0.24819-0.40136-0.53851-0.8519-0.8785-1.3746-0.42443-0.66128-0.77689-1.2934-1.062-1.8945-0.27433-0.60644-0.37152-1.1509-0.30024-1.6366 0.0738-0.50311 0.32258-0.95637 0.73742-1.3798 0.3511-0.36262 0.72291-0.5182 1.1291-0.43925 0.36857 0.07163 0.61697 0.37546 0.74931 0.90382 0.0907 0.38008 0.11363 0.76857 0.0677 1.1591-0.0149 0.12712-0.0299 0.25314-0.045 0.37775-0.0258 0.2134-0.15271 0.43022-0.38241 0.64234-0.12071 0.11363-0.18732 0.21522-0.19947 0.30748-0.0252 0.19175 0.10334 0.32042 0.38603 0.38447 0.0582 0.0132 0.11556 0.02426 0.1726 0.03307 0.24641 0.0381 0.48203 0.03533 0.70538-0.0098 0.28422-0.05362 0.52126-0.19959 0.70952-0.44235 0.19869-0.25001 0.32151-0.60407 0.36948-1.0723 0.0566-0.55278-0.0563-1.221-0.33744-2.0138-0.20367-0.58729-0.50808-1.0709-0.91364-1.4366-0.45092-0.40569-1.0158-0.65836-1.7115-0.77928-0.41237-0.07167-0.88321-0.03322-1.4309 0.09198-0.5367 0.11672-1.0518 0.45855-1.5658 0.97358-0.50153 0.50631-0.82677 1.1378-0.96015 1.8976-0.0408 0.23223-0.0606 0.47604-0.0589 0.73122-0.36301 0.59702-0.8994 1.2648-1.6309 1.9766-0.73525 0.71207-1.5407 1.2841-2.3942 1.7415-0.24683 0.13274-0.49941 0.25634-0.75706 0.37104-0.79358 0.3566-1.6226 0.59393-2.4743 0.70538-1.0614 0.1422-2.003-0.0095-2.8406-0.48472-0.46051-0.26125-0.88906-0.63379-1.2785-1.1116-0.29091-0.36564-0.48439-0.74461-0.57465-1.125-0.0736-0.30784-0.0791-0.61724-0.014-0.92449 0.0545-0.2572 0.17612-0.50406 0.36432-0.74207 0.0999-0.12568 0.21813-0.24811 0.35553-0.36845 0.62166-0.55817 1.5544-0.68673 2.744-0.49403 0.89967 0.14612 1.4071-0.01827 1.5353-0.43408 0.0335-0.11934 8.5e-4 -0.26616-0.0977-0.44132-0.0868-0.17671-0.20417-0.3048-0.35295-0.38551-0.0996-0.05405-0.28271-0.09217-0.55345-0.12041-0.17059-0.01102-0.40098-0.06031-0.68988-0.15141-0.28903-0.09114-0.5392-0.20148-0.74828-0.32763-0.43363-0.26162-0.8016-0.53813-1.1007-0.82062-0.27161-0.25292-0.48862-0.51467-0.64905-0.7798-0.49531-0.81304-0.57747-1.6157-0.28164-2.4334 0.27628-0.76368 0.79867-1.4054 1.5642-2.1229 0.43097-0.39683 0.87317-0.76374 1.3069-1.0878 0.51628-0.37879 1.0415-0.7008 1.571-0.94413 0.62926-0.29597 1.1799-0.39529 1.7126-0.20826 0.54666 0.19194 0.94462 0.55197 1.187 1.0961 0.28852 0.65605 0.39534 1.4208 0.29094 2.2319-0.0583 0.45294-0.19274 0.90478-0.40669 1.341-0.20293 0.43053-0.47434 0.75318-0.80977 0.97152-0.20599 0.14186-0.32619 0.27826-0.35916 0.42065-0.0219 0.09457-8e-3 0.19216 0.0424 0.293 0.11489 0.1821 0.31139 0.3371 0.58704 0.45889 0.10458 0.0462 0.22122 0.08438 0.34985 0.11369 0.56113 0.13735 1.0622 0.07944 1.4904-0.18707 0.23294-0.14444 0.43449-0.33081 0.60358-0.55914 0.32218-0.4344 0.52979-1.0239 0.61392-1.7787 0.0826-0.74145 0.0458-1.4379-0.0971-2.0454-0.019-0.0819-0.0405-0.16581-0.0641-0.25218-0.0825-0.30253-0.19288-0.63267-0.33228-0.99115-0.7618-1.8637-2.0035-2.9039-3.6582-3.4385-0.73682-0.23809-1.4273-0.25901-2.1291-0.12816-0.2283 0.04349-0.45929 0.10306-0.69298 0.17518-0.80345 0.23985-1.6831 0.57692-2.4427 0.9617-0.8668 0.43241-1.5797 0.87726-2.1921 1.5053-0.45768 0.47662-0.79242 0.99779-1.0113 1.5787-0.29334 0.77853-0.35742 1.5398-0.16795 2.3136 0.0664 0.2608 0.15976 0.54978 0.28163 0.8661 0.38385 0.94903 1.1648 1.9867 2.3378 2.9874-1.0722-0.03495-1.9169 0.1986-2.4934 0.81339-0.20367 0.2274-0.35103 0.49036-0.4377 0.79272-0.15242 0.53169-0.0904 1.2933 0.23461 2.3063 0.22081 0.66837 0.72122 1.4514 1.4748 2.2717 0.2805 0.30849 0.57184 0.59405 0.87229 0.8537 0.50439 0.44495 1.0375 0.827 1.5973 1.1446 0.93657 0.53141 1.8245 0.82962 2.6758 0.92604 1.3161 0.15789 2.5128-0.03084 3.5843-0.49713 0.41625-0.18031 0.81846-0.40309 1.2056-0.66766 1.1139-0.74068 2.2132-1.7496 3.1879-3.1073 0.0882-0.12133 0.1713-0.23839 0.24908-0.35037 0.15867 0.51345 0.38443 1.0605 0.68161 1.6407 0.2037 0.38932 0.75276 1.3627 1.6614 2.7905-0.69772 0.04268-1.3498-0.0285-1.9477-0.2036 0.0506-0.37125-0.12201-0.71725-0.51935-1.0449-0.37133-0.29702-0.74818-0.5169-1.1348-0.66198-0.63406-0.23792-1.0313 0.04821-1.1586 0.88108-0.10972 0.71776 0.14236 1.2617 0.73277 1.603-0.0117 0.6874 0.26328 1.3761 0.81236 2.0381 0.62451 0.74967 1.4458 1.3049 2.4603 1.6263 0.73623 0.23323 1.4073 0.28244 2.0185 0.16123 0.11409-0.02128 0.22431-0.04704 0.33022-0.07751 0.45905-0.13246 0.84196-0.35081 1.1472-0.64699 0.37588-0.3647 0.58617-0.80929 0.63666-1.3307 0.0553-0.57144-0.0614-1.1944-0.34313-1.8795 1.1835-0.55409 2.1823-1.265 2.9962-2.1513-0.27983 1.6659-0.50965 3.3924-0.66662 5.1868-0.12547 1.4343-0.22639 2.8507-0.37982 4.3734-0.15004 1.4996 0.33751 2.5142 1.6216 2.7699 0.16365 0.03257 0.3018 0.01202 0.41497-0.05994 0.18053-0.1148 0.31513-0.4076 0.38912-0.85834 0.14339-0.96374 0.24474-1.8732 0.32298-2.7295 0.15197-1.4015 0.29947-2.6343 0.51831-4.0054 0.41371 0.51328 0.9891 0.9087 1.7167 1.172 0.35468 0.13047 0.69739 0.21634 1.0278 0.25786 0.59358 0.06961 1.165 0.06165 1.7131-0.02377 1.0726-0.16511 2.0703-0.62608 2.9554-1.3891 0.52377-0.4511 1.0096-1.0111 1.4547-1.7131 0.052 1.0399 0.33271 1.8898 0.84439 2.6128 0.30513 0.43972 0.74451 0.74999 1.3162 0.92501 0.0683 0.02103 0.13868 0.04019 0.21084 0.05736 0.14828 0.03992 0.29739 0.06036 0.44648 0.06201 1.1218 0.01242 2.1759-1.0282 2.9719-3.2551 0.0346 2.011 0.32707 3.3364 0.89142 4.0855 0.41003 0.54204 1.0037 0.80024 1.7901 0.75551 0.72768-0.04139 1.3548-0.40949 1.8547-1.0873 0.50677-0.67508 0.98885-1.6631 1.3994-2.9905 0.13701-0.4503 0.33219-1.1555 0.59118-2.2629 0.0542 0.55482 0.11658 1.0931 0.18448 1.6211 0.15896 1.2318 0.34159 2.1544 0.54364 2.7683 0.1518 0.47851 0.54482 0.76367 1.1886 0.84233 0.18252 0.02265 0.35496 0.02363 0.51728 0.0026 0.30523-0.03958 0.49589-0.25845 0.5643-0.65112 0.0526-0.31934 0.10251-0.63773 0.14987-0.95756 0.16536-1.0712 0.52129-2.46 1.0397-4.3894 0.71937-2.6635 1.2217-4.2962 1.6288-4.3615 0.27809-0.04459 0.4407 0.28225 0.49919 0.94464 0.0526 0.59568 0.0486 1.4468-0.0186 2.452-0.10351 1.6746-0.11173 2.9536-0.0222 3.8871 0.15962 1.6647 0.7542 2.5405 1.9027 2.5776 0.21367 0.0068 0.44609-0.0159 0.69712-0.06873 0.75047-0.15794 1.3775-0.6258 1.849-1.3875 0.424-0.67321 0.80374-1.5861 1.0955-2.7492 0.32088 0.84913 0.81153 1.4421 1.4898 1.7865 0.7254 0.36362 1.724 0.36848 2.9998-0.05168 0.98749-0.32521 1.7508-0.83647 2.2603-1.5043 0.51864-0.67949 0.85579-1.4246 0.9958-2.2205 0.13885-0.80562 0.10514-1.5804-0.0879-2.3404-0.11483-0.45223-0.26497-0.94259-0.45527-1.5053 0.18679-0.05676 0.37088-0.12631 0.55191-0.20929 0.96101-0.44051 1.6668-1.0873 2.1218-1.9244 0.231 0.87945 0.46364 1.681 0.65784 2.3461 0.42413 1.4526 0.95145 2.5314 1.6221 3.1998 0.67251 0.66388 1.4654 0.79138 2.4448 0.25993 0.7951-0.43141 1.4414-1.1896 1.8681-2.2443 0.43694-1.0604 0.7508-2.4558 0.82734-4.132 0.0814-1.7823-0.014-3.563-0.26407-5.9511-0.0575-0.50301-0.10577-0.79462-0.14262-0.87178-0.0577-0.12075-0.15087-0.18001-0.27906-0.18035-0.12231-0.01525-0.24243 0.02652-0.36122 0.12557-0.27415 0.22862-0.39515 0.59989-0.36225 1.1245 0.0515 0.73906 0.1088 2.0064 0.0977 3.4375-0.0117 1.5088-0.11467 2.8988-0.32349 4.255-0.19626 1.3345-0.45769 2.0766-0.67541 2.205-0.42232 0.24905-0.74173-0.2638-1.0857-1.4407-0.60184-2.0592-1.8986-6.2309-2.1327-9.8283-0.0717-1.2384-0.0184-2.1031 0.0269-2.4474 0.047-0.35729 0.066-0.68305 0.0574-0.97978-0.0137-0.47377-0.21082-0.77132-0.59996-0.93328-0.19052-0.08798-0.38437-0.13887-0.58498-0.14728zm-19.022 3.9853c-0.34883 0.01267-0.81135 0.50821-1.3767 1.4506-0.55273 0.93546-0.83537 1.6869-0.85937 2.2727-7e-3 0.17164 0.0163 0.35439 0.0703 0.54622 0.1551 0.50424 0.36468 0.73635 0.61598 0.71779 0.18232-0.01347 0.44258-0.33326 0.78496-0.97978 0.35452-0.6666 0.59523-1.015 0.71727-1.0232 0.20462-0.01368 0.52522 0.36421 1.0087 1.0728 0.47717 0.69931 0.92247 0.999 1.2919 0.95808 0.4204-0.04658 0.82572-0.38382 1.2196-1.0237 0.20947-0.33992 0.41755-0.7671 0.62942-1.2924 0.2583-0.63873 0.40436-1.1737 0.43202-1.5922 0.01-0.14453-0.0119-0.32327-0.0641-0.5395-0.0426-0.2319-0.12276-0.34577-0.2434-0.33745-0.0936 0.0065-0.31337 0.40682-0.64234 1.1751l-8e-3 0.0186c-0.32043 0.75794-0.62015 1.1385-0.91415 1.1638-0.29618 0.02547-0.73558-0.35856-1.2594-1.2346-0.53157-0.88901-0.9794-1.3683-1.4025-1.3529zm11.47 9.0511c0.50739 0.84472 1.3001 1.3571 2.3585 1.5332 0.0977 0.28298 0.18137 0.56795 0.25012 0.85576 0.3424 1.4335 0.27271 2.6248-0.22893 3.6695-0.31947 0.6706-0.83943 1.1276-1.5286 1.3565-0.8422 0.27975-1.3221-0.1398-1.5074-1.2154-0.0959-0.55655-0.11521-1.2175-0.0641-1.9947 0.0837-1.3949 0.31325-2.7908 0.72037-4.2049zm-22.438 1.7947c0.35417-0.0094 0.64512 0.20586 0.88366 0.63045 0.16724 0.29923 0.27385 0.55592 0.31885 0.7767-0.3354 1.1125-0.77154 2.3076-1.3229 3.5409-0.85357 1.9294-1.505 2.7835-1.8004 2.7812-0.28622-0.0022-0.4261-0.32061-0.42323-0.97152 5e-3 -1.0641 0.16783-2.2401 0.49145-3.637 0.19438-0.86951 0.4517-1.6224 0.76842-2.2071 0.32739-0.58812 0.68553-0.9031 1.0842-0.91364zm-9.4465 0.709c5e-3 -2.49e-4 0.01-2.86e-4 0.0145 0 0.28609 0.01738 0.4087 0.4433 0.36897 1.2258-0.0617 1.216-0.28044 2.4207-0.66456 3.607-0.24011 0.72549-0.53585 1.2659-0.88573 1.6443-0.34978 0.37835-0.7443 0.53609-1.1772 0.47801-0.36722-0.04927-0.66972-0.2439-0.90382-0.58136-0.13906-0.19808-0.20405-0.36408-0.19482-0.49713 0.0267-0.38445 0.55884-1.2754 1.5699-3.0551 0.9793-1.7305 1.5672-2.8058 1.8728-2.8215zm-14.477 4.9025c0.85336 0.23426 1.7324 0.29774 2.6283 0.185 0.0936 0.24995 0.13174 0.4584 0.11369 0.6258-0.0474 0.43921-0.13648 0.76376-0.26975 0.97152-0.1333 0.20778-0.29845 0.3274-0.49558 0.35553-0.19786 0.03525-0.40587 0.01839-0.62477-0.05064-0.58644-0.18494-0.97449-0.60425-1.1544-1.2304-0.083-0.28163-0.14902-0.56727-0.1974-0.8568z" filter="url(#filter15)" opacity=".32" stroke-linecap="round" stroke-opacity=".26274" stroke-width=".75668" style="mix-blend-mode:normal"/></g><path transform="translate(246.52 98.425)" d="m-188.22-78.583c-0.11853-2e-3 -0.25886 0.01749-0.4222 0.05943-1.4015 0.35982-2.9405 0.91016-4.5909 1.7234-3.5829 1.7648-6.8491 4.3933-9.3658 7.6967-1.3345 1.745-2.2959 3.5499-2.8019 5.2539-0.47594 1.6108-0.45144 2.9309 6e-3 3.9336 0.39734 0.87157 1.0497 1.2409 1.8578 1.2304 0.80591-0.01048 1.587-0.31942 2.3446-0.90124 0.53988-0.41466 0.86738-0.77087 0.98909-1.095 0.0339-0.09447 0.0361-0.17418 6e-3 -0.23978-0.0594-0.13052-0.28507-0.16108-0.68058-0.07751-0.39895 0.07711-0.74405 0.04461-1.0299-0.10904-0.28569-0.15358-0.50524-0.39885-0.64802-0.74466-0.45859-1.1107-0.4737-2.3529-0.0429-3.7 0.69335-2.1406 2.2945-4.3967 4.548-6.3676-0.71813 2.1402-0.86019 4.2037-0.47956 6.3469 0.34662 2.0001 1.0512 3.8628 1.6645 5.5583 0.59047 1.6324 1.2223 3.0653 1.758 3.8582 0.58073 0.85938 1.2046 1.2338 2.0464 0.93948 0.86552-0.30258 1.5972-1.3884 2.0226-3.2551 0.38846-1.688 0.58645-3.4906 0.67902-5.5128 0.0163-0.41952 0.11667-2.7009 0.38654-4.7749 0.89556-0.40059 1.7148-0.95974 2.5079-1.6929-0.51701 1.137-0.79406 2.4991-0.85059 4.2416-0.0362 1.1551 0.0517 2.2337 0.22996 3.1941 0.26444 1.4248 0.71127 2.4755 1.3653 3.0489 0.39955 0.36811 0.91028 0.48342 1.5451 0.32504 1.0863-0.27101 2.0648-1.6157 3.0019-3.9445 0.4559-1.1395 0.81386-2.3266 1.1431-3.6039 0.25202 0.92389 0.65834 1.7518 1.2036 2.4572 0.43156 0.56882 0.99272 0.90901 1.6908 0.9989 0.15368 0.02623 0.30404 0.02653 0.45165 5.17e-4 1.1522-0.20304 1.9103-1.898 2.5239-4.7155 0.24754 2.3854 0.76072 4.3351 1.4536 5.4219 0.5056 0.79018 1.1448 1.1604 1.9218 1.0754 0.72308-0.0791 1.2668-0.64743 1.665-1.6728 0.40988-1.0321 0.74907-2.4595 1.0945-4.2003 0.086-0.44215 0.26422-1.4435 0.53692-2.6841 0.0603 0.60548 0.13514 1.2375 0.22376 1.896 0.2113 1.5662 0.47711 2.8936 0.75809 3.8401 0.2104 0.72751 0.64993 1.2068 1.3095 1.4128 0.18718 0.05896 0.36068 0.08407 0.5209 0.07493 0.30233-0.01725 0.45788-0.32715 0.47749-0.91622 0.0129-0.47763 0.0298-0.94564 0.0501-1.4046 0.025-0.51176 0.0761-1.0652 0.1571-1.6505 0.16033-1.1569 0.43752-2.4507 0.85576-3.7951 0.83882-2.6842 1.6593-3.7689 2.036-3.7775 0.30262-0.0069 0.44708 0.25153 0.44493 0.80202-2e-3 0.51545-0.093 1.2305-0.24908 2.2681-0.25179 1.7334-0.29367 3.3507-0.18397 4.6772 0.23536 2.8459 1.2623 4.4428 2.7936 4.4499 8e-3 3.7e-5 0.0162 8.8e-5 0.0243 0 0.71711-0.0069 1.2449-0.50457 1.6361-1.4537 0.31653-0.7499 0.59533-1.7372 0.89038-2.9301 0.11034 0.962 0.45181 1.5609 0.98134 1.7492 0.16773 1.06 0.58894 1.9856 1.2382 2.7404 0.73999 0.85637 1.5922 1.3188 2.5368 1.3896 0.68568 0.05135 1.2565-0.12739 1.7291-0.52555 0.47428-0.38646 0.81399-0.91344 1.0413-1.5766 0.22681-0.66178 0.31006-1.3873 0.25477-2.1709-0.0605-0.85674-0.26148-1.7321-0.61082-2.6122 1.4735-1.4263 2.7411-2.8791 3.699-4.3093 0.39237-0.56744 0.60082-0.90341 0.61805-1.0609 0.0124-0.11302-0.015-0.21997-0.0822-0.32143-0.0575-0.09964-0.14883-0.16048-0.27389-0.18242-0.27788-0.04875-0.54504 0.12965-0.79013 0.5488-0.68822 1.2064-1.9864 2.4689-3.7956 3.9693-0.33202-0.59364-0.7833-1.3112-1.3369-2.0929-0.47362-0.67761-0.88129-1.2902-1.2206-1.8417-0.32995-0.55997-0.4826-1.0514-0.45631-1.4872 0.0272-0.4506 0.23872-0.85181 0.63614-1.2061 0.33335-0.30067 0.71932-0.42831 1.1472-0.39171 0.38972 0.03334 0.67047 0.23491 0.83457 0.61908 0.11464 0.27949 0.15804 0.58147 0.13229 0.90796-8e-3 0.10628-0.0165 0.21322-0.0248 0.32143-0.0142 0.18565-0.13149 0.38586-0.34985 0.60358-0.1145 0.11629-0.17415 0.21935-0.17983 0.30851-0.0119 0.18696 0.1264 0.29694 0.41341 0.3297 0.31621 0.0361 0.61087 0.01776 0.88676-0.05529 0.28538-0.07183 0.51865-0.22259 0.70229-0.44958 0.19351-0.23327 0.30816-0.54565 0.34261-0.92708 0.0406-0.44913-0.0973-0.95786-0.42426-1.5007-0.49372-0.83621-1.4781-1.2807-2.8949-1.3798-0.43994-0.03076-0.94753 0.0086-1.5141 0.12196-0.55531 0.10736-1.0782 0.36765-1.5539 0.80202-0.46758 0.42998-0.71919 0.98057-0.7519 1.681-0.01 0.21465 3e-3 0.44188 0.0398 0.68264-0.84748 2.1171-1.6275 4.3786-2.3606 7.0569-0.36513 1.3566-0.63913 2.0836-0.92965 2.0789-0.24272-0.0039-0.41447-0.44291-0.4868-1.2842-0.055-0.63943-0.0535-1.5816 0.0403-2.727 0.13834-1.6545 0.23637-2.8129 0.23823-3.7579 3e-3 -1.3008-0.20584-2.1697-0.66818-2.7363-0.16234-0.19862-0.35555-0.35948-0.57981-0.48472-0.44881-0.25012-0.89797-0.3646-1.3374-0.35398-0.66134 0.01597-1.28 0.30388-1.8133 0.89555-0.6372 0.71167-1.203 1.7176-1.6376 3.1197-0.20089 0.64944-0.37526 1.3895-0.51625 2.2345-0.0136-0.31682-0.0252-0.62719-0.0351-0.93173-0.0291-0.80018 0.0413-1.9254 0.25373-3.1998 0.0834-0.53259 0.12948-0.88315 0.13126-1.0992 4e-3 -0.46728-0.2471-0.81016-0.76068-1.0413-0.51104-0.22998-1.0262-0.31793-1.5343-0.2744-0.43065 0.0369-0.68783 0.23973-0.76068 0.62115-0.10341 0.50924-0.16612 1.2501-0.15865 2.3074-0.68348 2.1072-1.3127 4.4516-1.9492 7.1391-0.34076 1.4051-0.57844 2.1675-0.78083 2.19-0.27055 0.03011-0.47242-0.3005-0.59945-0.96738-0.12758-0.67454-0.2201-1.3087-0.27853-1.9063-0.18763-1.9191-0.21841-4.4562 0.10025-6.8823 0.046-0.35809 0.0966-0.68702 0.15089-0.99012 0.0643-0.30567 0.0982-0.47839 0.0982-0.54002-1.5e-4 -0.18564-0.20418-0.33494-0.6134-0.44597-0.39813-0.11837-0.86391-0.13844-1.3922-0.05994-0.16659 0.02475-0.32353 0.0581-0.47078 0.09974-0.31399 0.09258-0.49768 0.25529-0.5457 0.49093-0.0624 0.34616-0.11866 0.70346-0.1695 1.0723-0.40716-0.19024-0.89164-0.28763-1.4506-0.29352-0.37282-0.0062-0.73096 0.02523-1.0728 0.0925-1.4322 0.28183-2.5186 1.0915-3.1264 2.5104-0.0559 0.10001-0.10341 0.22106-0.14315 0.36122-0.0975 0.28192-0.18311 0.5787-0.24546 0.90434-0.20226 0.72984-0.46061 1.6345-0.76171 2.7502-0.56091 2.106-1.0659 3.7795-1.6784 5.0509-0.32331 0.67635-0.6599 1.0655-1.0154 1.1617-0.30072 0.08132-0.50564-0.30272-0.62994-1.11-0.24596-1.5976-0.23976-3.6799 0.18862-5.903 0.21091-1.0837 0.5202-2.031 0.92863-2.8758 0.0575-0.11379 0.0822-0.20954 0.0739-0.28784-0.028-0.26329-0.36509-0.38517-1.0196-0.35398-0.40193 0.02453-0.78164 0.09589-1.1364 0.21291-0.31535 0.10403-0.5476 0.23394-0.69453 0.38602-0.80509 0.82451-1.6352 1.4178-2.5662 1.7911 0.30892-1.2038 0.49981-1.922 0.47646-2.2567-0.0174-0.24875-0.21827-0.40919-0.60823-0.47904-0.38843-0.06958-0.89773 0.01421-1.5265 0.26717-0.6087 0.24487-0.96512 0.55856-1.0475 0.92036-0.18573 0.73516-0.21265 1.4577-0.0879 2.1756 0.14577 0.83843 0.57353 1.2332 1.2222 1.2206-0.19302 1.2893-0.33515 2.4017-0.5917 4.9945-0.35524 3.6144-0.77146 5.7012-1.0196 5.8022-0.35444 0.14426-0.62963-0.63948-1.001-2.1673-0.40027-1.6468-0.71058-2.7242-0.95343-4.0225-0.68852-3.5534-0.75353-5.6463-0.31006-7.6497 0.11593-0.54277 0.19548-0.93924 0.21342-1.2072 0.043-0.64213-0.39338-0.90248-1.3849-0.73484 2.3421-1.6357 4.8764-2.8021 7.5628-3.5889 0.43851-0.12843 0.69443-0.34177 0.79788-0.65112 0.0966-0.28896 0.0774-0.52379-0.062-0.71003-0.0805-0.11749-0.2169-0.1802-0.41444-0.18345zm49.405 4.0582c-0.45056-0.01778-0.88406 0.05619-1.296 0.22066-0.88337 0.35774-1.6126 0.99676-2.1575 1.9534-0.5555 0.94992-0.8864 2.0394-0.97204 3.2742-0.0994 1.433 0.1614 2.8421 0.74569 4.1832 0.55512 1.2713 1.4254 2.2544 2.5301 2.9388 0.31417 0.19223 0.61466 0.33215 0.90124 0.42013 1.4888 0.45706 2.5917 0.09094 3.622-1.0108 0.67977-0.7263 1.4178-1.7992 2.1988-3.0954-0.0959 0.65568-0.17138 1.328-0.21859 2.0143-0.10616 1.5508-0.0144 2.7821 0.16226 3.6912 0.13002 0.69253 0.50645 1.267 1.08 1.7343 0.16312 0.13327 0.31554 0.23472 0.45734 0.30437 0.26891 0.13209 0.4159-0.02399 0.47852-0.46302 0.0484-0.35975 0.11063-0.71754 0.18552-1.0744 0.25868-1.1995 0.88287-2.6023 2.0882-4.2292 1.6201-2.1794 2.8352-3.0756 3.2628-2.8293 0.30935 0.17819 0.36416 0.58228 0.15968 1.2123-0.19311 0.59504-0.54212 1.3115-1.049 2.2681-0.83758 1.6031-1.2852 2.932-1.4578 4.0897-0.35648 2.3906 0.52204 3.9301 1.8536 4.8426h5.2e-4c0.62654 0.42935 1.1252 0.46249 1.6175 0.11317 0.49119-0.33674 1.1304-1.0259 2.0516-2.051 0.56061-0.63166 1.9539-2.0845 4.4028-4.6297 0.0759-0.07812 0.13236-0.15908 0.16846-0.2434 0.0762-0.17803 0.0826-0.36009 0.0196-0.54467-0.0484-0.1858-0.14201-0.33092-0.27957-0.4346-0.30751-0.23177-0.64888-0.14247-1.0294 0.25218-1.8271 1.8871-3.7187 3.534-5.1025 5.0679-0.69544 0.78131-1.0593 1.0995-1.3188 0.91157-0.21323-0.15445-0.30286-0.5727-0.18706-1.248 0.0896-0.52242 0.31451-1.2472 0.75809-2.1828 0.67344-1.4123 1.1788-2.4008 1.571-3.4758 0.70003-1.9189 0.6893-3.4563-0.061-4.6622-0.38373-0.61573-0.81612-1.0463-1.2764-1.2981-0.69631-0.38088-1.4132-0.34912-2.1477 0.077-1.2298 0.7205-2.6664 2.2662-3.7574 4.5393 0.0687-0.31 0.14107-0.6185 0.21652-0.92604 0.20363-0.84417 0.59168-1.8882 1.2201-3.2654 0.25154-0.566 0.40703-0.96632 0.4749-1.2289 0.14742-0.57025-6e-3 -1.1519-0.4625-1.7322-0.45441-0.57801-0.95334-0.96621-1.4723-1.1751-0.44097-0.17753-0.73684-0.04372-0.90227 0.39429-0.20658 0.52937-0.49592 1.463-0.7922 2.6464-1.242 2.0452-2.5048 3.8694-3.392 4.7997-1.0014 1.05-1.9292 1.4576-2.9993 1.142-0.12285-0.03967-0.24657-0.09918-0.37052-0.17828-1.0134-0.67475-1.6181-2.3444-1.4139-4.7832 0.36145 0.27605 0.77375 0.48529 1.2392 0.63097 0.76754 0.24024 1.4231 0.23102 1.9952-0.03101 0.57996-0.25819 1.0652-0.65147 1.4573-1.1803 0.39197-0.52866 0.65867-1.1033 0.78342-1.727 0.13674-0.68372 0.0595-1.3429-0.2465-1.9797-0.29536-0.63161-0.8102-1.1361-1.5296-1.5146-0.36953-0.18796-0.69843-0.31916-0.98186-0.39636-0.28183-0.07676-0.55803-0.12059-0.82837-0.13126zm-37.562 0.5948c0.27042 6e-3 0.51037 0.10303 0.71882 0.29404 0.19631 0.18092 0.32428 0.3526 0.38344 0.51108-0.31375 0.89463-0.70353 1.9794-1.1596 3.3492-0.7281 2.2145-1.1495 3.4794-1.4888 3.5445-0.28712 0.05506-0.48112-0.32585-0.57671-1.1054-0.15426-1.258-0.14539-2.5436 0.0605-3.8235 0.12093-0.79695 0.34-1.4205 0.64648-1.9038 0.3149-0.48336 0.70117-0.76031 1.1358-0.84181 0.0969-0.01816 0.18995-0.02629 0.28009-0.02429zm38.49 1.0516c0.0892-0.0024 0.1763 0.0093 0.26097 0.03462 0.60287 0.18007 0.82618 0.68359 0.67024 1.5389-0.063 0.34536-0.19236 0.69584-0.38396 1.0542-0.28742 0.50954-0.64471 0.93202-1.0697 1.2645-0.42442 0.32402-0.8528 0.42053-1.3059 0.28319-0.24003-0.07276-0.49459-0.26644-0.76585-0.57826 0.32305-1.1749 0.78321-2.09 1.3286-2.7626 0.45242-0.55161 0.87926-0.82409 1.2656-0.83457zm-17.361 0.21291c0.22437 0.5085 0.5158 1.0625 0.87488 1.6676 0.2553 0.42184 0.88593 1.4034 1.9585 3.1321-0.61998 0.29179-1.2012 0.44224-1.7606 0.4408-0.0319-0.55648-0.24836-0.97298-0.6625-1.2599-0.38392-0.25451-0.76052-0.39072-1.1276-0.41134-0.10996-0.0062-0.20941 0.0086-0.29817 0.04444 0.21395-0.90341 0.5346-2.1616 1.0154-3.6137zm3.6189 6.2963c0.1322 0.33755 0.20954 0.63642 0.23048 0.894 0.0551 0.67776 0.0607 1.207 2e-3 1.5766-0.0591 0.36924-0.16421 0.61547-0.32246 0.73587-0.15659 0.13159-0.33566 0.18962-0.53899 0.1726-0.54377-0.04553-0.99131-0.52231-1.3084-1.4123-0.14382-0.39774-0.27114-0.80608-0.38137-1.2232 0.78542-0.02775 1.548-0.28192 2.3192-0.74362zm21.077 92.589c-0.20061-0.0084-0.40821 0.02565-0.6258 0.10749-0.70309 0.26443-1.7388 3.5391-0.98806 8.2827 0.10093 0.64127 0.22505 1.282 0.36174 1.9069-0.0756 0.85217-0.29348 1.4597-0.65836 1.8361-0.38822 0.40048-0.73617 0.66834-1.0361 0.8077-0.30965 0.14387-0.63661 0.22061-0.9772 0.22686-0.24334-0.5957-0.51948-1.1519-0.81597-1.6614-0.2898-0.52276-0.59967-0.93899-0.93173-1.232-0.32441-0.29752-0.67309-0.38802-1.064-0.25425-0.30158 0.1032-0.55843 0.29308-0.77256 0.57309-0.42965-0.51297-0.88064-0.72173-1.3937-0.57878-0.71621 0.19955-1.3316 1.468-1.8014 3.5894-0.20756 0.9252-0.33811 1.79-0.39481 2.6019-0.28717 1.635-0.62863 3.1017-1.1069 4.5925-0.34264 1.0858-0.69232 1.6566-0.97772 1.7198-0.25266 0.0559-0.40197-0.20788-0.46509-0.78962-0.0486-0.44797-0.0487-1.1278-0.0176-2.065 0.0464-1.316-0.0104-2.5133-0.1266-3.4535-0.22561-1.8258-0.75223-3.205-1.5808-3.8272-0.0395-0.02958-0.0787-0.05756-0.11782-0.08423-0.39439-0.26994-0.7653-0.38751-1.1276-0.3359-0.60139 0.08568-1.1208 0.61485-1.5658 1.5482-0.77921 1.6462-1.3284 3.8048-1.7224 6.2094-5e-3 -0.07959-0.0498-0.76997-0.0548-0.84956-0.0498-0.74452-0.0289-1.9061 0.0889-3.5584 0.0448-0.69796 0.0644-1.2285 0.0532-1.5508-0.0245-0.70916-0.27046-1.293-0.74052-1.7306-0.47203-0.43947-0.92537-0.65512-1.3834-0.61857-0.38471 0.0307-0.61195 0.40217-0.67127 1.0816-0.0861 0.91981-0.12129 2.1059-0.0915 3.4732-0.58514 2.6836-1.2051 4.7616-2.0169 6.7495-0.42533 1.0224-0.76041 1.5306-0.95343 1.5431-0.27265 0.01753-0.43956-0.20963-0.50643-0.6811-0.0672-0.48001-0.10855-0.95012-0.12351-1.4159-0.0468-1.4582 0.0495-3.6959 0.37414-7.0859 0.0482-0.51314 0.0986-1.0172 0.15193-1.5121 0.0622-0.49588 0.0953-0.80844 0.0961-0.91571 2e-3 -0.33399-0.17824-0.65285-0.54054-0.95911-0.35442-0.32018-0.76341-0.47468-1.2366-0.45424-0.14864 0.0064-0.28861 0.0317-0.42064 0.07545-0.28174 0.10107-0.45025 0.37753-0.5023 0.81132 0.048-0.44738-0.24544 2.2798-0.1974 1.8324-0.35755-0.40577-0.78126-0.70167-1.2785-0.87643-0.33138-0.12044-0.64875-0.17769-0.95601-0.17053-0.63515 0.0148-1.1944 0.26555-1.6903 0.73329-0.68837 0.65148-1.2446 1.7176-1.6588 3.0293-0.85563 2.2706-1.905 3.7745-3.1171 4.8193 0.37317-0.87306 0.57288-1.9046 0.61701-3.1771 0.016-0.46045-0.0192-1.0046-0.10231-1.6531-0.24787-1.7762-0.87589-3.0542-1.927-3.5419-0.0366-0.01697-0.074-0.03298-0.11162-0.04806-0.13901-0.06143-0.27934-0.09444-0.42116-0.09974-1.1014-0.04115-2.1384 1.6449-3.2329 4.162-0.12808 0.29928-0.2565 0.59051-0.38499 0.87385 0.23261-1.1102 0.54474-2.4162 0.92087-4.0938 0.12713-0.58698 0.19226-0.95193 0.19792-1.0511 0.0359-0.62892-0.15522-1.1771-0.57154-1.6139-0.41842-0.43893-0.87346-0.67426-1.3767-0.70538-0.44878-0.02775-0.75242 0.31919-0.92242 0.99529-0.31346 1.2933-0.61344 2.6226-0.88522 3.9925-0.68181 1.3143-1.977 2.4522-3.9336 3.2835-0.0953-0.16396-0.2009-0.34014-0.31781-0.52968-0.24819-0.40136-0.53851-0.8519-0.8785-1.3746-0.42443-0.66128-0.77689-1.2934-1.062-1.8945-0.27433-0.60644-0.37152-1.1509-0.30024-1.6366 0.0738-0.50311 0.32258-0.95637 0.73742-1.3798 0.3511-0.36262 0.72291-0.5182 1.1291-0.43925 0.36857 0.07163 0.61697 0.37546 0.74931 0.90382 0.0907 0.38008 0.11363 0.76857 0.0677 1.1591-0.0149 0.12712-0.0299 0.25314-0.045 0.37775-0.0258 0.2134-0.15271 0.43022-0.38241 0.64234-0.12071 0.11363-0.18732 0.21522-0.19947 0.30748-0.0252 0.19175 0.10334 0.32042 0.38603 0.38447 0.0582 0.0132 0.11556 0.02426 0.1726 0.03307 0.24641 0.0381 0.48203 0.03533 0.70538-0.0098 0.28422-0.05362 0.52126-0.19959 0.70952-0.44235 0.19869-0.25001 0.32151-0.60407 0.36948-1.0723 0.0566-0.55278-0.0563-1.221-0.33744-2.0138-0.20367-0.58729-0.50808-1.0709-0.91364-1.4366-0.45092-0.40569-1.0158-0.65836-1.7115-0.77928-0.41237-0.07167-0.88321-0.03322-1.4309 0.09198-0.5367 0.11672-1.0518 0.45855-1.5658 0.97358-0.50153 0.50631-0.82677 1.1378-0.96015 1.8976-0.0408 0.23223-0.0606 0.47604-0.0589 0.73122-0.36301 0.59702-0.8994 1.2648-1.6309 1.9766-0.73525 0.71207-1.5407 1.2841-2.3942 1.7415-0.24683 0.13274-0.49941 0.25634-0.75706 0.37104-0.79358 0.3566-1.6226 0.59393-2.4743 0.70538-1.0614 0.1422-2.003-0.0095-2.8406-0.48472-0.46051-0.26125-0.88906-0.63379-1.2785-1.1116-0.29091-0.36564-0.48439-0.74461-0.57465-1.125-0.0736-0.30784-0.0791-0.61724-0.014-0.92449 0.0545-0.2572 0.17612-0.50406 0.36432-0.74207 0.0999-0.12568 0.21813-0.24811 0.35553-0.36845 0.62166-0.55817 1.5544-0.68673 2.744-0.49403 0.89967 0.14612 1.4071-0.01827 1.5353-0.43408 0.0335-0.11934 8.5e-4 -0.26616-0.0977-0.44132-0.0868-0.17671-0.20417-0.3048-0.35295-0.38551-0.0996-0.05405-0.28271-0.09217-0.55345-0.12041-0.17059-0.01102-0.40098-0.06031-0.68988-0.15141-0.28903-0.09114-0.5392-0.20148-0.74828-0.32763-0.43363-0.26162-0.8016-0.53813-1.1007-0.82062-0.27161-0.25292-0.48862-0.51467-0.64905-0.7798-0.49531-0.81304-0.57747-1.6157-0.28164-2.4334 0.27628-0.76368 0.79867-1.4054 1.5642-2.1229 0.43097-0.39683 0.87317-0.76374 1.3069-1.0878 0.51628-0.37879 1.0415-0.7008 1.571-0.94413 0.62926-0.29597 1.1799-0.39529 1.7126-0.20826 0.54666 0.19194 0.94462 0.55197 1.187 1.0961 0.28852 0.65605 0.39534 1.4208 0.29094 2.2319-0.0583 0.45294-0.19274 0.90478-0.40669 1.341-0.20293 0.43053-0.47434 0.75318-0.80977 0.97152-0.20599 0.14186-0.32619 0.27826-0.35916 0.42065-0.0219 0.09457-8e-3 0.19216 0.0424 0.293 0.11489 0.1821 0.31139 0.3371 0.58704 0.45889 0.10458 0.0462 0.22122 0.08438 0.34985 0.11369 0.56113 0.13735 1.0622 0.07944 1.4904-0.18707 0.23294-0.14444 0.43449-0.33081 0.60358-0.55914 0.32218-0.4344 0.52979-1.0239 0.61392-1.7787 0.0826-0.74145 0.0458-1.4379-0.0971-2.0454-0.019-0.0819-0.0405-0.16581-0.0641-0.25218-0.0825-0.30253-0.19288-0.63267-0.33228-0.99115-0.7618-1.8637-2.0035-2.9039-3.6582-3.4385-0.73682-0.23809-1.4273-0.25901-2.1291-0.12816-0.2283 0.04349-0.45929 0.10306-0.69298 0.17518-0.80345 0.23985-1.6831 0.57692-2.4427 0.9617-0.8668 0.43241-1.5797 0.87726-2.1921 1.5053-0.45768 0.47662-0.79242 0.99779-1.0113 1.5787-0.29334 0.77853-0.35742 1.5398-0.16795 2.3136 0.0664 0.2608 0.15976 0.54978 0.28163 0.8661 0.38385 0.94903 1.1648 1.9867 2.3378 2.9874-1.0722-0.03495-1.9169 0.1986-2.4934 0.81339-0.20367 0.2274-0.35103 0.49036-0.4377 0.79272-0.15242 0.53169-0.0904 1.2933 0.23461 2.3063 0.22081 0.66837 0.72122 1.4514 1.4748 2.2717 0.2805 0.30849 0.57184 0.59405 0.87229 0.8537 0.50439 0.44495 1.0375 0.827 1.5973 1.1446 0.93657 0.53141 1.8245 0.82962 2.6758 0.92604 1.3161 0.15789 2.5128-0.03084 3.5843-0.49713 0.41625-0.18031 0.81846-0.40309 1.2056-0.66766 1.1139-0.74068 2.2132-1.7496 3.1879-3.1073 0.0882-0.12133 0.1713-0.23839 0.24908-0.35037 0.15867 0.51345 0.38443 1.0605 0.68161 1.6407 0.2037 0.38932 0.75276 1.3627 1.6614 2.7905-0.69772 0.04268-1.3498-0.0285-1.9477-0.2036 0.0506-0.37125-0.12201-0.71725-0.51935-1.0449-0.37133-0.29702-0.74818-0.5169-1.1348-0.66198-0.63406-0.23792-1.0313 0.04821-1.1586 0.88108-0.10972 0.71776 0.14236 1.2617 0.73277 1.603-0.0117 0.6874 0.26328 1.3761 0.81236 2.0381 0.62451 0.74967 1.4458 1.3049 2.4603 1.6263 0.73623 0.23323 1.4073 0.28244 2.0185 0.16123 0.11409-0.02128 0.22431-0.04704 0.33022-0.07751 0.45905-0.13246 0.84196-0.35081 1.1472-0.64699 0.37588-0.3647 0.58617-0.80929 0.63666-1.3307 0.0553-0.57144-0.0614-1.1944-0.34313-1.8795 1.1835-0.55409 2.1823-1.265 2.9962-2.1513-0.27983 1.6659-0.50965 3.3924-0.66662 5.1868-0.12547 1.4343-0.22639 2.8507-0.37982 4.3734-0.15004 1.4996 0.33751 2.5142 1.6216 2.7699 0.16365 0.03257 0.3018 0.01202 0.41497-0.05994 0.18053-0.1148 0.31513-0.4076 0.38912-0.85834 0.14339-0.96374 0.24474-1.8732 0.32298-2.7295 0.15197-1.4015 0.29947-2.6343 0.51831-4.0054 0.41371 0.51328 0.9891 0.9087 1.7167 1.172 0.35468 0.13047 0.69739 0.21634 1.0278 0.25786 0.59358 0.06961 1.165 0.06165 1.7131-0.02377 1.0726-0.16511 2.0703-0.62608 2.9554-1.3891 0.52377-0.4511 1.0096-1.0111 1.4547-1.7131 0.052 1.0399 0.33271 1.8898 0.84439 2.6128 0.30513 0.43972 0.74451 0.74999 1.3162 0.92501 0.0683 0.02103 0.13868 0.04019 0.21084 0.05736 0.14828 0.03992 0.29739 0.06036 0.44648 0.06201 1.1218 0.01242 2.1759-1.0282 2.9719-3.2551 0.0346 2.011 0.32707 3.3364 0.89142 4.0855 0.41003 0.54204 1.0037 0.80024 1.7901 0.75551 0.72768-0.04139 1.3548-0.40949 1.8547-1.0873 0.50677-0.67508 0.98885-1.6631 1.3994-2.9905 0.13701-0.4503 0.33219-1.1555 0.59118-2.2629 0.0542 0.55482 0.11658 1.0931 0.18448 1.6211 0.15896 1.2318 0.34159 2.1544 0.54364 2.7683 0.1518 0.47851 0.54482 0.76367 1.1886 0.84233 0.18252 0.02265 0.35496 0.02363 0.51728 0.0026 0.30523-0.03958 0.49589-0.25845 0.5643-0.65112 0.0526-0.31934 0.10251-0.63773 0.14987-0.95756 0.16536-1.0712 0.52129-2.46 1.0397-4.3894 0.71937-2.6635 1.2217-4.2962 1.6288-4.3615 0.27809-0.04459 0.4407 0.28225 0.49919 0.94464 0.0526 0.59568 0.0486 1.4468-0.0186 2.452-0.10351 1.6746-0.11173 2.9536-0.0222 3.8871 0.15962 1.6647 0.7542 2.5405 1.9027 2.5776 0.21367 0.0068 0.44609-0.0159 0.69712-0.06873 0.75047-0.15794 1.3775-0.6258 1.849-1.3875 0.424-0.67321 0.80374-1.5861 1.0955-2.7492 0.32088 0.84913 0.81153 1.4421 1.4898 1.7865 0.7254 0.36362 1.724 0.36848 2.9998-0.05168 0.98749-0.32521 1.7508-0.83647 2.2603-1.5043 0.51864-0.67949 0.85579-1.4246 0.9958-2.2205 0.13885-0.80562 0.10514-1.5804-0.0879-2.3404-0.11483-0.45223-0.26497-0.94259-0.45527-1.5053 0.18679-0.05676 0.37088-0.12631 0.55191-0.20929 0.96101-0.44051 1.6668-1.0873 2.1218-1.9244 0.231 0.87945 0.46364 1.681 0.65784 2.3461 0.42413 1.4526 0.95145 2.5314 1.6221 3.1998 0.67251 0.66388 1.4654 0.79138 2.4448 0.25993 0.7951-0.43141 1.4414-1.1896 1.8681-2.2443 0.43694-1.0604 0.7508-2.4558 0.82734-4.132 0.0814-1.7823-0.014-3.563-0.26407-5.9511-0.0575-0.50301-0.10577-0.79462-0.14262-0.87178-0.0577-0.12075-0.15087-0.18001-0.27906-0.18035-0.12231-0.01525-0.24243 0.02652-0.36122 0.12557-0.27415 0.22862-0.39515 0.59989-0.36225 1.1245 0.0515 0.73906 0.1088 2.0064 0.0977 3.4375-0.0117 1.5088-0.11467 2.8988-0.32349 4.255-0.19626 1.3345-0.45769 2.0766-0.67541 2.205-0.42232 0.24905-0.74173-0.2638-1.0857-1.4407-0.60184-2.0592-1.8986-6.2309-2.1327-9.8283-0.0717-1.2384-0.0184-2.1031 0.0269-2.4474 0.047-0.35729 0.066-0.68305 0.0574-0.97978-0.0137-0.47377-0.21082-0.77132-0.59996-0.93328-0.19052-0.08798-0.38437-0.13887-0.58498-0.14728zm-19.022 3.9853c-0.34883 0.01267-0.81135 0.50821-1.3767 1.4506-0.55273 0.93546-0.83537 1.6869-0.85937 2.2727-7e-3 0.17164 0.0163 0.35439 0.0703 0.54622 0.1551 0.50424 0.36468 0.73635 0.61598 0.71779 0.18232-0.01347 0.44258-0.33326 0.78496-0.97978 0.35452-0.6666 0.59523-1.015 0.71727-1.0232 0.20462-0.01368 0.52522 0.36421 1.0087 1.0728 0.47717 0.69931 0.92247 0.999 1.2919 0.95808 0.4204-0.04658 0.82572-0.38382 1.2196-1.0237 0.20947-0.33992 0.41755-0.7671 0.62942-1.2924 0.2583-0.63873 0.40436-1.1737 0.43202-1.5922 0.01-0.14453-0.0119-0.32327-0.0641-0.5395-0.0426-0.2319-0.12276-0.34577-0.2434-0.33745-0.0936 0.0065-0.31337 0.40682-0.64234 1.1751l-8e-3 0.0186c-0.32043 0.75794-0.62015 1.1385-0.91415 1.1638-0.29618 0.02547-0.73558-0.35856-1.2594-1.2346-0.53157-0.88901-0.9794-1.3683-1.4025-1.3529zm11.47 9.0511c0.50739 0.84472 1.3001 1.3571 2.3585 1.5332 0.0977 0.28298 0.18137 0.56795 0.25012 0.85576 0.3424 1.4335 0.27271 2.6248-0.22893 3.6695-0.31947 0.6706-0.83943 1.1276-1.5286 1.3565-0.8422 0.27975-1.3221-0.1398-1.5074-1.2154-0.0959-0.55655-0.11521-1.2175-0.0641-1.9947 0.0837-1.3949 0.31325-2.7908 0.72037-4.2049zm-22.438 1.7947c0.35417-0.0094 0.64512 0.20586 0.88366 0.63045 0.16724 0.29923 0.27385 0.55592 0.31885 0.7767-0.3354 1.1125-0.77154 2.3076-1.3229 3.5409-0.85357 1.9294-1.505 2.7835-1.8004 2.7812-0.28622-0.0022-0.4261-0.32061-0.42323-0.97152 5e-3 -1.0641 0.16783-2.2401 0.49145-3.637 0.19438-0.86951 0.4517-1.6224 0.76842-2.2071 0.32739-0.58812 0.68553-0.9031 1.0842-0.91364zm-9.4465 0.709c5e-3 -2.49e-4 0.01-2.86e-4 0.0145 0 0.28609 0.01738 0.4087 0.4433 0.36897 1.2258-0.0617 1.216-0.28044 2.4207-0.66456 3.607-0.24011 0.72549-0.53585 1.2659-0.88573 1.6443-0.34978 0.37835-0.7443 0.53609-1.1772 0.47801-0.36722-0.04927-0.66972-0.2439-0.90382-0.58136-0.13906-0.19808-0.20405-0.36408-0.19482-0.49713 0.0267-0.38445 0.55884-1.2754 1.5699-3.0551 0.9793-1.7305 1.5672-2.8058 1.8728-2.8215zm-14.477 4.9025c0.85336 0.23426 1.7324 0.29774 2.6283 0.185 0.0936 0.24995 0.13174 0.4584 0.11369 0.6258-0.0474 0.43921-0.13648 0.76376-0.26975 0.97152-0.1333 0.20778-0.29845 0.3274-0.49558 0.35553-0.19786 0.03525-0.40587 0.01839-0.62477-0.05064-0.58644-0.18494-0.97449-0.60425-1.1544-1.2304-0.083-0.28163-0.14902-0.56727-0.1974-0.8568z" fill="url(#radialGradient11)" stroke-linecap="round" stroke-opacity=".26274" stroke-width=".75668"/></g></svg>
